<?xml version="1.0" encoding="UTF-8"?>
<svg width="20px" height="19px" viewBox="0 0 20 19" version="1.1" xmlns="http://www.w3.org/2000/svg" xmlns:xlink="http://www.w3.org/1999/xlink">
    
    <g id="área-de-usuario" stroke="none" stroke-width="1" fill="none" fill-rule="evenodd" stroke-linecap="round" stroke-linejoin="round">
        <g id="Menu-superpuesto" transform="translate(-9.000000, -546.000000)" stroke="#858585" stroke-width="0.8">
            <g id="Group-7" transform="translate(9.000000, 547.000000)">
                <path d="M17.16384,10.89928 L17.17264,10.90248 C17.87584,11.16568 18.62944,10.69688 18.72544,9.95208 C18.77424,9.57448 18.79984,9.19048 18.79984,8.80008 C18.79984,8.40888 18.77424,8.02488 18.72544,7.64728 C18.62944,6.90248 17.87584,6.43368 17.17264,6.69688 L17.16384,6.70008 C16.58864,6.91528 15.94864,6.61768 15.69744,6.05768 C15.51264,5.64408 15.28704,5.25208 15.02544,4.88808 C14.66224,4.38328 14.72224,3.69208 15.20224,3.29688 L15.20304,3.29608 C15.78384,2.81848 15.75264,1.92888 15.15424,1.47448 C14.54704,1.01448 13.88224,0.62888 13.17104,0.32968 C12.47664,0.03688 11.68864,0.45208 11.56464,1.19528 C11.46144,1.81208 10.88944,2.20888 10.26784,2.14408 C10.04864,2.12088 9.82544,2.10888 9.59984,2.10888 C9.37424,2.10888 9.15104,2.12088 8.93184,2.14408 C8.31024,2.20888 7.73824,1.81208 7.63584,1.19528 C7.51184,0.45208 6.72384,0.03688 6.02944,0.32968 C5.31824,0.62888 4.65264,1.01448 4.04624,1.47448 C3.44704,1.92888 3.41664,2.81848 3.99664,3.29608 L3.99744,3.29688 C4.47744,3.69208 4.53824,4.38328 4.17504,4.88808 C3.91344,5.25208 3.68784,5.64408 3.50224,6.05768 C3.25184,6.61768 2.61104,6.91528 2.03584,6.70008 L2.02704,6.69688 C1.32384,6.43368 0.57024,6.90248 0.47424,7.64728 C0.42544,8.02488 0.39984,8.40888 0.39984,8.80008 C0.39984,9.19048 0.42544,9.57448 0.47424,9.95208 C0.57024,10.69688 1.32384,11.16568 2.02704,10.90248 L2.03584,10.89928 C2.61104,10.68408 3.25184,10.98168 3.50224,11.54168 C3.68784,11.95528 3.91344,12.34728 4.17504,12.71128 C4.53824,13.21608 4.47744,13.90728 3.99744,14.30248 L3.99664,14.30328 C3.41664,14.78088 3.44704,15.67048 4.04624,16.12488 C4.65264,16.58488 5.31824,16.97048 6.02944,17.27048 C6.72384,17.56248 7.51184,17.14728 7.63584,16.40408 C7.73824,15.78808 8.31024,15.39048 8.93184,15.45528 C9.15104,15.47848 9.37424,15.49048 9.59984,15.49048 C9.82544,15.49048 10.04864,15.47848 10.26784,15.45528 C10.88944,15.39048 11.46144,15.78808 11.56464,16.40408 C11.68864,17.14728 12.47664,17.56248 13.17104,17.27048 C13.88224,16.97048 14.54704,16.58488 15.15424,16.12488 C15.75264,15.67048 15.78384,14.78088 15.20304,14.30328 L15.20224,14.30248 C14.72224,13.90728 14.66224,13.21608 15.02544,12.71128 C15.28704,12.34728 15.51264,11.95528 15.69744,11.54168 C15.94864,10.98168 16.58864,10.68408 17.16384,10.89928 L17.16384,10.89928 Z" id="Stroke-3"></path>
                <path d="M13.2,8.79976 C13.2,10.78776 11.588,12.39976 9.6,12.39976 C7.612,12.39976 6,10.78776 6,8.79976 C6,6.81176 7.612,5.19976 9.6,5.19976 C11.588,5.19976 13.2,6.81176 13.2,8.79976 L13.2,8.79976 Z" id="Stroke-5"></path>
            </g>
        </g>
    </g>
</svg>