<?xml version="1.0" encoding="UTF-8"?>
<svg width="18px" height="18px" viewBox="0 0 18 18" version="1.1" xmlns="http://www.w3.org/2000/svg" xmlns:xlink="http://www.w3.org/1999/xlink">
   
    <g id="área-de-usuario" stroke="none" stroke-width="1" fill="none" fill-rule="evenodd" stroke-linecap="round" stroke-linejoin="round">
        <g id="Menu-superpuesto" transform="translate(-9.000000, -451.000000)" stroke="#858585" stroke-width="0.8">
            <g id="Group-656" transform="translate(10.000000, 452.000000)">
                <path d="M0.84245,15.54245 L1.25755,15.95755 C1.89805,16.59805 2.95015,16.55045 3.52975,15.85465 L9.44965,8.74965 L8.04965,7.34965 L0.94535,13.27025 C0.24955,13.84985 0.20195,14.90195 0.84245,15.54245 L0.84245,15.54245 Z" id="Stroke-646"></path>
                <polygon id="Stroke-648" points="6.65 5.95 10.85 10.15 14.35 6.65 10.15 2.45"></polygon>
                <path d="M14.18872,6.81128 L11.01142,9.98858 C10.53542,10.46458 10.53542,11.23598 11.01142,11.71128 L11.01282,11.71268 C11.69602,12.39588 12.80412,12.39588 13.48732,11.71268 L15.91282,9.28718 C16.59602,8.60398 16.59602,7.49588 15.91282,6.81268 L15.91142,6.81128 C15.43542,6.33598 14.66402,6.33598 14.18872,6.81128 L14.18872,6.81128 Z" id="Stroke-650"></path>
                <path d="M9.98872,2.61128 L6.81142,5.78858 C6.33542,6.26458 5.56472,6.26458 5.08872,5.78858 L5.08732,5.78718 C4.40412,5.10398 4.40412,3.99588 5.08732,3.31268 L7.51282,0.88718 C8.19602,0.20398 9.30412,0.20398 9.98732,0.88718 L9.98872,0.88858 C10.46472,1.36458 10.46472,2.13598 9.98872,2.61128 L9.98872,2.61128 Z" id="Stroke-652"></path>
                <path d="M15.05,15.05 L10.9375,15.05 C10.164,15.05 9.5375,15.6765 9.5375,16.45 L16.45,16.45 C16.45,15.6765 15.8235,15.05 15.05,15.05 L15.05,15.05 Z" id="Stroke-654"></path>
            </g>
        </g>
    </g>
</svg>