<?xml version="1.0" encoding="UTF-8"?>
<svg width="15px" height="18px" viewBox="0 0 15 18" version="1.1" xmlns="http://www.w3.org/2000/svg" xmlns:xlink="http://www.w3.org/1999/xlink">
    
    <g id="área-de-usuario" stroke="none" stroke-width="1" fill="none" fill-rule="evenodd" stroke-linecap="round" stroke-linejoin="round">
        <g id="Menu-superpuesto" transform="translate(-11.000000, -499.000000)" stroke="#858585" stroke-width="0.8">
            <g id="Group-770" transform="translate(12.000000, 500.000000)">
                <path d="M6.65,16.45 C9.4206,15.5456 12.95,11.8125 12.95,9.45 L12.95,2.45 C11.025,2.45 8.2033,1.9033 6.65,0.35 C5.0967,1.9033 2.275,2.45 0.35,2.45 L0.35,9.45 C0.35,11.8125 3.8794,15.5456 6.65,16.45 L6.65,16.45 Z" id="Stroke-762"></path>
                <path d="M6.65,15.05 C4.3281,14.035 1.75,10.8759 1.75,9.45 L1.75,3.85 C3.3978,3.6743 5.2206,3.0569 6.65,2.1 C8.0794,3.0569 9.9022,3.6743 11.55,3.85 L11.55,9.45 C11.55,10.8759 8.9719,14.035 6.65,15.05 L6.65,15.05 Z" id="Stroke-764"></path>
                <path d="M8.05,5.95 C8.05,6.7235 7.4235,7.35 6.65,7.35 C5.8765,7.35 5.25,6.7235 5.25,5.95 C5.25,5.1765 5.8765,4.55 6.65,4.55 C7.4235,4.55 8.05,5.1765 8.05,5.95 L8.05,5.95 Z" id="Stroke-766"></path>
                <path d="M9.45,10.15 C9.45,8.6037 8.1963,7.35 6.65,7.35 C5.1037,7.35 3.85,8.6037 3.85,10.15 L9.45,10.15 L9.45,10.15 Z" id="Stroke-768"></path>
            </g>
        </g>
    </g>
</svg>