<?xml version="1.0" encoding="UTF-8"?>
<svg width="20px" height="20px" viewBox="0 0 20 20" version="1.1" xmlns="http://www.w3.org/2000/svg" xmlns:xlink="http://www.w3.org/1999/xlink">
    
    <g id="Iconos-/-Ajustes" stroke="none" stroke-width="1" fill="none" fill-rule="evenodd">
        <g id="settings" fill="#A2A2A2" fill-rule="nonzero">
            <path d="M18.6956522,7.82608696 L17.0678261,7.82608696 C16.9313043,7.38043478 16.7526087,6.95 16.5356522,6.54 L17.6856522,5.39 C17.9317391,5.14391304 18.0673913,4.81608696 18.0673913,4.46695652 C18.0673913,4.11826087 17.9317391,3.79043478 17.6856522,3.54434783 L16.4552174,2.31391304 C15.9634783,1.82217391 15.1026087,1.82086957 14.61,2.31391304 L13.46,3.46391304 C13.0504348,3.24695652 12.6195652,3.06869565 12.173913,2.93173913 L12.173913,1.30434783 C12.173913,0.585217391 11.5886957,0 10.8695652,0 L9.13043478,0 C8.41130435,0 7.82608696,0.585217391 7.82608696,1.30434783 L7.82608696,2.93217391 C7.38043478,3.06913043 6.95,3.2473913 6.54,3.46434783 L5.38956522,2.31434783 C4.88086957,1.80565217 4.05304348,1.80565217 3.54434783,2.31434783 L2.31347826,3.54478261 C1.80521739,4.05347826 1.80521739,4.88130435 2.31347826,5.39 L3.46347826,6.54043478 C3.24652174,6.95 3.06826087,7.38086957 2.93130435,7.82652174 L1.30434783,7.82652174 C0.585217391,7.82652174 0,8.41173913 0,9.13086957 L0,10.87 C0,11.5886957 0.585217391,12.173913 1.30434783,12.173913 L2.93217391,12.173913 C3.06913043,12.6195652 3.2473913,13.05 3.46434783,13.46 L2.31434783,14.6104348 C1.80565217,15.1191304 1.80565217,15.9469565 2.31434783,16.4556522 L3.54478261,17.6865217 C4.05347826,18.1947826 4.88130435,18.1947826 5.39,17.6865217 L6.54043478,16.5365217 C6.95,16.7534783 7.38086957,16.9317391 7.82652174,17.0686957 L7.82652174,18.6956522 C7.82652174,19.4147826 8.41173913,20 9.13086957,20 L10.87,20 C11.5891304,20 12.1743478,19.4147826 12.1743478,18.6956522 L12.1743478,17.0678261 C12.62,16.9308696 13.0508696,16.7526087 13.4604348,16.5356522 L14.6104348,17.686087 C15.1034783,18.1786957 15.9643478,18.1778261 16.4556522,17.686087 L17.686087,16.4556522 C17.9321739,16.2095652 18.0678261,15.8817391 18.0678261,15.5330435 C18.0678261,15.183913 17.9321739,14.8565217 17.686087,14.6104348 L16.536087,13.46 C16.7530435,13.0504348 16.9313043,12.6195652 17.0682609,12.173913 L18.6956522,12.173913 C19.4147826,12.173913 20,11.5886957 20,10.8695652 L20,9.13043478 C20,8.41130435 19.4147826,7.82608696 18.6956522,7.82608696 Z M19.1304348,10.8695652 C19.1304348,11.1091304 18.9356522,11.3043478 18.6956522,11.3043478 L16.7391304,11.3043478 C16.5408696,11.3043478 16.3678261,11.4386957 16.3182609,11.6304348 C16.1643478,12.223913 15.93,12.7904348 15.6208696,13.313913 C15.5204348,13.4847826 15.5478261,13.7021739 15.6878261,13.8421739 L17.0704348,15.2252174 C17.1521739,15.3069565 17.1973913,15.416087 17.1973913,15.5330435 C17.1973913,15.65 17.1521739,15.7591304 17.0704348,15.8408696 L15.84,17.0713043 C15.6765217,17.2347826 15.3882609,17.2347826 15.2243478,17.0713043 L13.8417391,15.6886957 C13.7017391,15.5482609 13.4843478,15.5213043 13.3130435,15.6217391 C12.7904348,15.9304348 12.223913,16.1652174 11.63,16.3186957 C11.4386957,16.3678261 11.3043478,16.5408696 11.3043478,16.7391304 L11.3043478,18.6956522 C11.3043478,18.9352174 11.1095652,19.1304348 10.8695652,19.1304348 L9.13043478,19.1304348 C8.89086957,19.1304348 8.69565217,18.9352174 8.69565217,18.6956522 L8.69565217,16.7391304 C8.69565217,16.5408696 8.56130435,16.3678261 8.36956522,16.3182609 C7.77608696,16.1647826 7.20956522,15.9304348 6.68608696,15.6213043 C6.6173913,15.5804348 6.54130435,15.5608696 6.46521739,15.5608696 C6.3526087,15.5608696 6.24130435,15.6043478 6.1573913,15.6882609 L4.77478261,17.0708696 C4.60478261,17.2404348 4.32913043,17.2404348 4.15913043,17.0708696 L2.92869565,15.8404348 C2.75869565,15.6704348 2.75869565,15.3943478 2.92869565,15.2247826 L4.31130435,13.8421739 C4.45173913,13.7017391 4.47913043,13.4843478 4.37826087,13.313913 C4.06956522,12.7904348 3.83478261,12.2243478 3.68130435,11.6304348 C3.63217391,11.4386957 3.45913043,11.3043478 3.26086957,11.3043478 L1.30434783,11.3043478 C1.06478261,11.3043478 0.869565217,11.1091304 0.869565217,10.8695652 L0.869565217,9.13043478 C0.869565217,8.89086957 1.06478261,8.69565217 1.30434783,8.69565217 L3.26086957,8.69565217 C3.45913043,8.69565217 3.63217391,8.56130435 3.68173913,8.36956522 C3.83521739,7.77608696 4.06956522,7.20956522 4.37869565,6.68608696 C4.47956522,6.51521739 4.45217391,6.29782609 4.31173913,6.15782609 L2.92913043,4.77521739 C2.75956522,4.60565217 2.75956522,4.32956522 2.92913043,4.15956522 L4.15956522,2.92913043 C4.32956522,2.75913043 4.60521739,2.75956522 4.77521739,2.92913043 L6.15782609,4.31173913 C6.29826087,4.45217391 6.51521739,4.48 6.68608696,4.37869565 C7.20956522,4.07 7.77565217,3.83521739 8.36956522,3.68173913 C8.56130435,3.63217391 8.69565217,3.45913043 8.69565217,3.26086957 L8.69565217,1.30434783 C8.69565217,1.06478261 8.89086957,0.869565217 9.13043478,0.869565217 L10.8695652,0.869565217 C11.1095652,0.869565217 11.3043478,1.06478261 11.3043478,1.30434783 L11.3043478,3.26086957 C11.3043478,3.45913043 11.4386957,3.63217391 11.6304348,3.68173913 C12.2243478,3.83521739 12.7908696,4.07 13.3134783,4.37869565 C13.4847826,4.47956522 13.7021739,4.4526087 13.8421739,4.31173913 L15.2247826,2.92913043 C15.3886957,2.76478261 15.6769565,2.76521739 15.8404348,2.92913043 L17.0708696,4.15956522 C17.1526087,4.24130435 17.1978261,4.35086957 17.1978261,4.4673913 C17.1978261,4.58391304 17.1526087,4.69347826 17.0708696,4.77521739 L15.6882609,6.15782609 C15.5482609,6.29826087 15.5204348,6.51565217 15.6213043,6.68608696 C15.9304348,7.20956522 16.1647826,7.77565217 16.3186957,8.36956522 C16.3678261,8.56130435 16.5408696,8.69565217 16.7391304,8.69565217 L18.6956522,8.69565217 C18.9356522,8.69565217 19.1304348,8.89086957 19.1304348,9.13043478 L19.1304348,10.8695652 L19.1304348,10.8695652 Z" id="Shape"></path>
            <path d="M10,6.08695652 C7.8426087,6.08695652 6.08695652,7.8426087 6.08695652,10 C6.08695652,12.1573913 7.8426087,13.9130435 10,13.9130435 C12.1578261,13.9130435 13.9130435,12.1573913 13.9130435,10 C13.9130435,7.8426087 12.1578261,6.08695652 10,6.08695652 Z M10,13.0434783 C8.32173913,13.0434783 6.95652174,11.6782609 6.95652174,10 C6.95652174,8.32173913 8.32173913,6.95652174 10,6.95652174 C11.6778261,6.95652174 13.0434783,8.32173913 13.0434783,10 C13.0434783,11.6782609 11.6778261,13.0434783 10,13.0434783 Z" id="Shape"></path>
        </g>
    </g>
</svg>