<?xml version="1.0" encoding="UTF-8"?>
<svg width="9px" height="13px" viewBox="0 0 9 13" version="1.1" xmlns="http://www.w3.org/2000/svg" xmlns:xlink="http://www.w3.org/1999/xlink">
    <title>Iconos / Bandera</title>
    <g id="Iconos-/-Bandera" stroke="none" stroke-width="1" fill="none" fill-rule="evenodd">
        <g id="Shape-2" fill="#4A4A4A" fill-rule="nonzero" stroke="#9B9B9B" stroke-width="0.3">
            <path d="M7.12971289,4.50922266 L8.82684766,2.23348633 C8.89461523,2.14261328 8.90533008,2.02124609 8.85447266,1.91988672 C8.80361523,1.81852734 8.69994531,1.75454297 8.58652539,1.75454297 L1.27956055,1.75454297 L1.27956055,1.37233789 C1.52676367,1.25848633 1.69888672,1.00854102 1.69888672,0.719011719 C1.69886133,0.3225625 1.37632422,0 0.979849609,0 C0.583375,0 0.2608125,0.3225625 0.2608125,0.719011719 C0.2608125,1.00851563 0.432884766,1.25843555 0.680037109,1.3723125 L0.680037109,12.4005273 L0.300167969,12.4005273 C0.134646484,12.4005273 0.000431640625,12.5347168 0.000431640625,12.7002637 C0.000431640625,12.8658105 0.134646484,13 0.300167969,13 L1.65950586,13 C1.82502734,13 1.95924219,12.8658105 1.95924219,12.7002637 C1.95924219,12.5347168 1.82502734,12.4005273 1.65950586,12.4005273 L1.27953516,12.4005273 L1.27953516,7.25270508 L8.57563281,7.25270508 C8.68897656,7.25270508 8.79262109,7.18877148 8.84347852,7.08746289 C8.89433594,6.98617969 8.88372266,6.86483789 8.81603125,6.77393945 L7.12971289,4.50922266 Z M0.979849609,0.898498047 C0.880876953,0.898498047 0.800388666,0.817984375 0.800388666,0.719011719 C0.800363281,0.620064453 0.880876953,0.539550781 0.979849609,0.539550781 C1.07882227,0.539550781 1.15933594,0.620064453 1.15933594,0.719011719 C1.15933594,0.817984375 1.07879688,0.898498047 0.979849609,0.898498047 Z M1.27958594,6.65325781 L1.27958594,6.65320703 L1.27958594,5.65764062 L2.23485742,5.65764062 C2.4004043,5.65764062 2.53459375,5.52345117 2.53459375,5.3579043 C2.53459375,5.19235742 2.4004043,5.05816797 2.23485742,5.05816797 L1.27958594,5.05816797 L1.27958594,3.94920703 L2.77435742,3.94920703 C2.9399043,3.94920703 3.07409375,3.81501758 3.07409375,3.6494707 C3.07409375,3.48392383 2.9399043,3.34973437 2.77435742,3.34973437 L1.27958594,3.34973437 L1.27958594,2.35406641 L7.98908398,2.35406641 L6.51558984,4.32993945 C6.43637109,4.43617383 6.43632031,4.58183984 6.51546289,4.68817578 L7.97872461,6.65325781 L1.27958594,6.65325781 L1.27958594,6.65325781 Z" id="Shape"></path>
        </g>
    </g>
</svg>