<?xml version="1.0" encoding="UTF-8"?>
<svg width="20px" height="20px" viewBox="0 0 20 20" version="1.1" xmlns="http://www.w3.org/2000/svg" xmlns:xlink="http://www.w3.org/1999/xlink">
    <title>Iconos / Basura</title>
    <g id="Iconos-/-Basura" stroke="none" stroke-width="1" fill="none" fill-rule="evenodd">
        <g id="delete-button-copy" transform="translate(5.000000, 4.000000)" fill="#9B9B9B" fill-rule="nonzero">
            <path d="M8.58732848,1.43769964 L6.66242864,1.43769964 C6.56640666,0.629713388 5.8579818,0 4.99998718,0 C4.1420182,0 3.43369587,0.629688514 3.33767389,1.43769964 L1.41267152,1.43769964 C0.633678442,1.43769964 0,2.05278704 0,2.80868687 L0,2.8790309 C0,3.45668275 0.370656133,3.95110576 0.892804503,4.15256131 L0.892804503,10.6290128 C0.892804503,11.3849375 1.52655984,12 2.30550165,12 L7.69452398,12 C8.47349142,12 9.1071955,11.3848877 9.1071955,10.6290128 L9.1071955,4.15258618 C9.62931823,3.95110576 10,3.45668275 10,2.87905578 L10,2.80871175 C10,2.05278704 9.36627029,1.43769964 8.58732848,1.43769964 Z M4.99998718,0.650184794 C5.48796649,0.650184794 5.89527811,0.989592251 5.98540445,1.43769964 L4.01474935,1.43769964 C4.10485006,0.989567377 4.51218731,0.650184794 4.99998718,0.650184794 Z M8.43716917,10.6290128 C8.43716917,11.0264516 8.10393752,11.3498401 7.69449835,11.3498401 L2.30547602,11.3498401 C1.89603685,11.3498401 1.5628052,11.0264267 1.5628052,10.6290128 L1.5628052,4.25001814 L8.43716917,4.25001814 L8.43716917,10.6290128 Z M9.32999931,2.8790309 C9.32999931,3.2764697 8.99674202,3.59985822 8.58730285,3.59985822 L1.41267152,3.59985822 C1.00323235,3.59985822 0.670000692,3.2764697 0.670000692,2.8790309 L0.670000692,2.80868687 C0.670000692,2.41124808 1.00323235,2.08785956 1.41267152,2.08785956 L8.58732848,2.08785956 C8.99676765,2.08785956 9.32999931,2.41124808 9.32999931,2.80868687 L9.32999931,2.8790309 L9.32999931,2.8790309 Z" id="Shape"></path>
            <path d="M3.5,10 C3.77614967,10 4,9.86489855 4,9.69835884 L4,6.30168733 C4,6.13512453 3.77611141,6 3.5,6 C3.22388859,6 3,6.13512453 3,6.30168733 L3,9.69835884 C2.99996174,9.86494472 3.22385033,10 3.5,10 Z" id="Shape"></path>
            <path d="M6.50003826,10 C6.77614967,10 7,9.86489855 7,9.69835884 L7,6.30168733 C7,6.13512453 6.77611141,6 6.50003826,6 C6.22385033,6 6,6.13512453 6,6.30168733 L6,9.69835884 C5.99996174,9.86494472 6.22392685,10 6.50003826,10 Z" id="Shape"></path>
        </g>
    </g>
</svg>