<?xml version="1.0" encoding="UTF-8"?>
<svg width="20px" height="20px" viewBox="0 0 20 20" version="1.1" xmlns="http://www.w3.org/2000/svg" xmlns:xlink="http://www.w3.org/1999/xlink">
    
    <g id="Iconos-/-Compartir" stroke="none" stroke-width="1" fill="none" fill-rule="evenodd">
        <path d="M15.8728527,8.55580921 L12.4442377,5.12726459 C12.3594025,5.04242935 12.2589934,5 12.1429166,5 C12.0268399,5 11.9263604,5.04242935 11.8415955,5.12726459 C11.7567603,5.21214674 11.714284,5.31260274 11.714284,5.42865603 L11.714284,7.14292834 L10.2142928,7.14292834 C7.0311301,7.14292834 5.07811355,8.04250558 4.35479754,9.84161313 C4.11825803,10.439752 4,11.1831451 4,12.0715345 C4,12.8125588 4.28349559,13.8192296 4.85043987,15.0915941 C4.86380899,15.1229059 4.88716975,15.1763589 4.92070981,15.2522345 C4.95422642,15.3280632 4.98431865,15.3950261 5.01110379,15.4531231 C5.03798275,15.5110794 5.06701953,15.5601933 5.09823758,15.6003241 C5.15176095,15.6762466 5.21429088,15.7142899 5.28573355,15.7142899 C5.3526964,15.7142899 5.40516431,15.6919846 5.44313729,15.6473505 C5.48101644,15.6027399 5.5,15.5468711 5.5,15.4800724 C5.5,15.4397774 5.49440901,15.3807188 5.48322117,15.3025446 C5.47205679,15.2243705 5.46645115,15.1720433 5.46645115,15.1452113 C5.44409892,14.8417558 5.43293454,14.5669853 5.43293454,14.3216269 C5.43293454,13.8707594 5.47205679,13.4667306 5.55011366,13.1096111 C5.6282878,12.7524212 5.73653071,12.4433366 5.87495969,12.1821464 C6.01336521,11.9208623 6.19187807,11.695581 6.41068591,11.5058334 C6.62939993,11.3160857 6.86486053,11.161004 7.11709116,11.0404474 C7.3693687,10.9198674 7.66623341,10.8249936 8.00775565,10.755826 C8.34925444,10.686635 8.69298141,10.6386235 9.03900693,10.6118149 C9.38503246,10.5850063 9.77677097,10.5716841 10.2142928,10.5716841 L11.714284,10.5716841 L11.714284,12.2860033 C11.714284,12.4020566 11.7566665,12.502536 11.8414314,12.5873244 C11.926337,12.6720658 12.026746,12.714542 12.1427524,12.714542 C12.2588057,12.714542 12.3592852,12.6720658 12.4442377,12.5873244 L15.8727823,9.15866246 C15.9576176,9.07382722 16,8.97341813 16,8.85734138 C16,8.74128809 15.9576176,8.64080864 15.8728527,8.55580921 Z" id="Shape" stroke="#AFAFAF" fill-rule="nonzero"></path>
    </g>
</svg>