<?xml version="1.0" encoding="UTF-8"?>
<svg width="470px" height="877px" viewBox="0 0 470 877" version="1.1" xmlns="http://www.w3.org/2000/svg" xmlns:xlink="http://www.w3.org/1999/xlink">
    
    <g id="área-de-usuario" stroke="none" stroke-width="1" fill="none" fill-rule="evenodd" opacity="0.05">
        <path d="M0.7356008,0 L170.694659,0 C162.814327,15.6501931 162.924798,36.639864 168.043332,53.1738327 C174.524353,73.9057356 180.416191,87.1623698 187.560044,106.163546 L242.501428,118.241812 L213.889192,45.588092 C210.685506,29.753779 215.25168,14.9137135 223.426604,7.91715653 C227.440418,3.90334229 232.153888,1.28883944 237.493366,0 L254.54287,0 L256.236774,0.331415855 C267.652209,3.6455744 276.526789,11.415435 282.160858,23.5673497 C276.232197,36.9712798 274.170054,50.0069701 276.048077,64.3683238 L286.43244,127.668752 L335.997523,138.237235 L322.409473,62.4534767 C317.217291,7.62256466 394.658129,15.4292492 394.068945,58.1082466 L374.957298,146.706752 L423.859548,157.238411 L443.00802,68.566258 C448.200202,56.5616392 458.731861,50.6698018 470,49.4546103 L470,155.213092 L462.929795,165.560632 L470,167.070415 L470,189.275277 C461.714604,191.374244 454.902167,197.965737 452.987319,206.877141 C450.335993,219.139528 457.921733,231.254619 470,234.311009 L470,249.740259 L202.510581,192.110724 L192.457634,238.47212 L470,298.237445 L470,325.045306 L113.322892,248.193651 L36.102998,606.45419 C12.0937605,717.699446 73.1847497,828.024101 177.322976,877 L0.7356008,877 L0.7356008,0 Z M216.245927,132.382222 C228.802906,135.033549 236.830534,147.406407 234.142383,159.926562 C231.417408,172.48354 219.081374,180.474345 206.561219,177.74937 C194.041065,175.061219 186.013436,162.688361 188.738411,150.131382 C191.389738,137.611228 203.762597,129.657247 216.245927,132.382222 L216.245927,132.382222 Z M304.439368,151.12563 C316.959523,153.813781 324.950328,166.112991 322.299001,178.743618 C319.537202,191.263772 307.237991,199.254577 294.644189,196.492778 C282.160858,193.804627 274.170054,181.431769 276.821381,168.911614 C279.546355,156.354636 291.919214,148.474303 304.439368,151.12563 L304.439368,151.12563 Z M393.995297,170.384573 C406.552276,173.072724 414.506256,185.445583 411.744458,198.039385 C409.166779,210.596364 396.757096,218.51352 384.163294,215.825369 C371.679963,213.100395 363.689159,200.727536 366.377309,188.207382 C369.102284,175.650403 381.438319,167.733247 393.995297,170.384573 L393.995297,170.384573 Z M417.930887,2.48689958e-14 L470,2.48689958e-14 L470,0.47871179 C457.001134,1.62025529 443.302612,5.52359758 429.456794,12.4465066 C425.737571,7.84350857 421.907877,3.75604636 417.930887,2.48689958e-14 L417.930887,2.48689958e-14 Z M470,373.026957 L470,379.397506 L469.116224,378.108666 L462.524731,382.343425 L458.253149,375.751931 L449.930929,381.201881 L454.128863,387.793374 L447.53737,392.028132 L452.987319,400.424001 L459.505165,396.189243 L463.813571,402.743912 L470,398.766921 L470,409.151285 L397.088512,393.501092 L344.651159,636.723505 C332.572892,692.806433 351.389948,750.877855 392.890578,784.866392 C420.839982,775.108037 450.888352,738.983708 465.507474,671.043458 L470,650.164259 L470,674.541737 L468.158801,675.793752 L470,678.666023 L470,758.353124 C451.661656,791.789301 426.547699,813.662748 395.983792,826.514318 C329.958389,782.436009 294.091829,697.851318 308.048119,633.556643 L368.807692,351.15351 L470,373.026957 Z M470,831.780148 L470,877 L401.581038,877 C426.915939,865.363621 450.151873,850.044844 470,831.780148 L470,831.780148 Z M470,423.733582 L470,428.594348 L458.621389,481.399941 L426.437227,474.477032 L438.810086,417.031617 L470,423.733582 Z M470,483.830324 L470,545.031785 L446.027586,539.913252 L458.621389,481.399941 L470,483.830324 Z M375.104594,370.780694 L370.869835,364.189201 L379.192056,358.776075 L383.500462,365.404392 L390.091955,361.13281 L395.541905,369.528678 L388.913588,373.726612 L393.18517,380.318105 L384.715653,385.841703 L380.517719,379.213386 L373.889402,383.41132 L368.549924,375.0891 L375.104594,370.780694 Z M470,389.413629 L470,393.906156 L467.827385,390.702469 L470,389.413629 Z M319.24261,637.791401 L315.007852,631.12626 L323.366896,625.713134 L327.638478,632.341451 L334.266795,628.106693 L339.679921,636.428913 L333.088428,640.737319 L337.323186,647.291989 L328.927318,652.778762 L324.618912,646.150445 L318.027419,650.458851 L312.577469,642.062983 L319.24261,637.791401 Z M383.095398,798.417618 L378.786992,791.715653 L387.18286,786.339352 L391.491266,792.930845 L398.082759,788.622439 L403.532709,797.055131 L396.867568,801.289889 L401.13915,807.881382 L392.81693,813.294508 L388.508524,806.739839 L381.880207,810.900949 L376.540729,802.578729 L383.095398,798.417618 Z M345.129871,509.128401 L340.858289,502.500084 L349.327805,497.050134 L353.599387,503.752099 L360.154056,499.480517 L365.530358,507.839562 L358.975689,512.07432 L363.136799,518.702637 L354.814578,524.078939 L350.542996,517.561093 L344.025151,521.795852 L338.538378,513.363159 L345.129871,509.128401 Z M413.843425,532.953519 L426.437227,474.477032 L394.805425,467.627771 L382.211622,526.104258 L413.843425,532.953519 Z M409.129955,711.218425 L397.198984,766.343928 C410.639738,758.831836 424.596028,742.739755 436.232407,717.073438 L409.129955,711.218425 Z M376.872145,704.33234 L357.797321,700.244877 C360.227704,713.317392 364.278342,725.69025 369.912412,736.921565 L376.872145,704.33234 Z M389.355475,646.702805 L401.765158,588.668206 L370.17018,581.855769 L358.902041,634.293122 C358.533801,636.134321 358.128737,638.085993 357.797321,639.964016 L389.355475,646.702805 Z M421.465989,653.625714 L389.355475,646.702805 L376.872145,704.33234 L409.129955,711.218425 L421.465989,653.625714 Z M434.022968,595.664763 L421.465989,653.625714 L454.055215,660.659095 L466.538546,602.624496 L434.022968,595.664763 Z M401.765158,588.668206 L434.022968,595.664763 L446.027586,539.913252 L413.843425,532.953519 L401.765158,588.668206 Z M275.348421,708.788042 C240.034221,758.979132 195.4772,783.282961 141.456416,798.822682 C204.057188,861.276159 278.773052,877.294592 361.737487,846.951629 C320.862865,810.348589 289.672951,770.873278 275.348421,708.788042 L275.348421,708.788042 Z M238.819029,769.289847 C233.037664,768.037832 217.534767,771.425638 216.687815,775.328981 L207.297699,819.186345 C206.450747,822.868744 220.259741,832.07474 225.304627,832.07474 L238.819029,769.289847 Z M258.004325,768.700663 C264.964058,770.210447 261.281659,769.437143 268.204568,770.873278 C275.348421,772.45671 278.993996,777.53842 278.331164,780.557986 L265.921481,838.187521 C265.037706,842.495927 258.961748,844.079358 253.916863,843.011463 C247.030778,841.50168 247.104426,841.50168 242.317308,840.470608 C237.493366,839.47636 231.675176,834.578771 232.44848,830.97002 L244.894987,773.450957 C245.520994,770.284095 251.596952,767.264528 258.004325,768.700663 L258.004325,768.700663 Z M285.180425,779.121851 C291.035438,780.41069 303.813361,789.911278 302.929585,793.81462 L293.428997,837.745633 C292.655694,841.428032 276.232197,844.226654 271.666023,842.054039 L285.180425,779.121851 Z M150.073228,304.055635 L337.91237,344.488369 L277.042324,626.928325 C263.233331,691.186177 196.176856,753.676478 118.515074,766.675344 C83.9005291,728.930761 69.7601192,676.640704 85.6312563,603.140032 L150.073228,304.055635 Z M222.911068,425.169718 C227.18265,426.163965 229.944449,430.398724 228.987026,434.559834 C228.140074,438.831416 223.905316,441.593215 219.744206,440.598967 C215.398975,439.715191 212.674001,435.480433 213.631424,431.245675 C214.5152,426.974093 218.713134,424.322766 222.911068,425.169718 L222.911068,425.169718 Z M286.211496,520.58066 C290.446255,521.50126 293.171229,525.66237 292.25063,529.933952 C291.366854,534.242358 287.132096,536.893685 283.00781,535.973085 C278.66258,535.015662 275.974429,530.854552 276.895029,526.693441 C277.815628,522.385035 281.976738,519.623236 286.211496,520.58066 L286.211496,520.58066 Z M189.290771,581.487529 C193.525529,582.334481 196.287328,586.532415 195.366728,590.767173 C194.446129,595.075579 190.285018,597.726906 186.013436,596.879955 C181.741854,595.959355 179.090527,591.687773 179.937479,587.526663 C180.894903,583.218257 185.056013,580.493282 189.290771,581.487529 L189.290771,581.487529 Z M126.395406,486.150235 C130.630165,487.107659 133.318315,491.305593 132.397716,495.466703 C131.477116,499.701461 127.316006,502.46326 123.081248,501.505836 C118.772842,500.658885 116.084691,496.387303 117.042115,492.152545 C117.92589,487.917786 122.123824,485.26646 126.395406,486.150235 L126.395406,486.150235 Z M139.431097,500.585237 C129.856861,483.388436 140.535816,448.810715 166.128485,456.948816 C176.439201,434.449362 202.878821,433.41829 217.276999,451.682986 C238.266669,441.409095 265.037706,455.365385 260.324236,477.275655 C288.27364,482.394189 282.492274,516.124958 268.720104,528.424169 C276.158549,545.326377 267.615385,578.467963 239.997397,571.545054 C235.247103,593.565796 205.198732,595.222875 190.285018,577.252771 C169.58994,587.894903 145.875294,576.148052 145.801646,551.365511 C119.104258,548.345944 123.670432,512.368912 139.431097,500.585237 L139.431097,500.585237 Z M253.254031,514.615175 C264.33805,505.556475 257.636085,490.274521 233.921439,498.633566 C230.717753,499.701461 228.28737,497.786614 231.159641,494.398808 C245.410522,477.422951 236.462294,461.294046 216.098631,473.887849 C213.889192,475.28716 209.80173,474.477032 208.402419,472.267593 C195.145784,452.382642 180.305719,463.393013 186.23438,484.750924 C187.486396,488.985682 184.430005,489.758986 182.036446,487.402251 C163.734926,470.094978 151.251596,481.731357 157.769441,494.030568 C160.53124,499.443693 158.137681,511.080072 153.461035,514.173287 C142.303367,522.237739 149.042157,538.403468 172.793626,530.118072 C175.997313,528.976528 178.354048,531.001847 175.555425,534.389654 C161.267719,551.291863 170.289595,567.383944 190.616434,554.790141 C192.862697,553.501302 196.876512,554.237781 198.275823,556.44722 C211.532457,576.295348 226.409347,565.395448 220.407037,544.000714 C219.191846,539.765956 222.28506,538.992652 224.715443,541.275739 C242.943315,558.693483 256.789133,545.657793 248.945625,534.72107 C245.66829,530.265368 248.282793,517.966157 253.254031,514.615175 L253.254031,514.615175 Z M192.199866,519.070877 L171.247019,514.615175 L175.629073,494.32516 L196.545096,498.780862 L201.000798,478.159431 L220.959397,482.504661 L216.430047,503.089268 L237.272422,507.471322 L232.853544,527.834985 L212.084817,523.379283 L207.629115,544.074362 L187.670516,539.765956 L192.199866,519.070877 Z" id="Fill-1" fill="#FFFFFF"></path>
    </g>
</svg>