<?xml version="1.0" encoding="UTF-8"?>
<svg width="22px" height="25px" viewBox="0 0 22 25" version="1.1" xmlns="http://www.w3.org/2000/svg" xmlns:xlink="http://www.w3.org/1999/xlink">
    
    <g id="APP---INCIDENCIAS" stroke="none" stroke-width="1" fill="none" fill-rule="evenodd">
        <g id="Group-11" fill="#FFFFFF">
            <path d="M22,5 C22,6.1045695 21.1045695,7 20,7 L2,7 C0.8954305,7 0,6.1045695 0,5 L0,2 C0,0.8954305 0.8954305,0 2,0 L20,0 C21.1045695,-2.02906125e-16 22,0.8954305 22,2 L22,5 Z M21,4.2 L1,4.2 L1,5 C1,5.51283584 1.38604019,5.93550716 1.88337887,5.99327227 L2,6 L20,6 C20.5128358,6 20.9355072,5.61395981 20.9932723,5.11662113 L21,5 L21,4.2 Z" id="Combined-Shape"></path>
            <path d="M22,14 C22,15.1045695 21.1045695,16 20,16 L2,16 C0.8954305,16 0,15.1045695 0,14 L0,11 C0,9.8954305 0.8954305,9 2,9 L20,9 C21.1045695,9 22,9.8954305 22,11 L22,14 Z M21,13.199 L1,13.199 L1,14 C1,14.5128358 1.38604019,14.9355072 1.88337887,14.9932723 L2,15 L20,15 C20.5128358,15 20.9355072,14.6139598 20.9932723,14.1166211 L21,14 L21,13.199 Z" id="Combined-Shape" fill-rule="nonzero"></path>
            <path d="M22,23 C22,24.1045695 21.1045695,25 20,25 L2,25 C0.8954305,25 0,24.1045695 0,23 L0,20 C0,18.8954305 0.8954305,18 2,18 L20,18 C21.1045695,18 22,18.8954305 22,20 L22,23 Z M21,22.2 L1,22.2 L1,23 C1,23.5128358 1.38604019,23.9355072 1.88337887,23.9932723 L2,24 L20,24 C20.5128358,24 20.9355072,23.6139598 20.9932723,23.1166211 L21,23 L21,22.2 Z" id="Combined-Shape" fill-rule="nonzero"></path>
        </g>
    </g>
</svg>