<?xml version="1.0" encoding="UTF-8"?>
<svg width="228px" height="64px" viewBox="0 0 228 64" version="1.1" xmlns="http://www.w3.org/2000/svg" xmlns:xlink="http://www.w3.org/1999/xlink">
    
    <defs>
        <polygon id="path-1" points="0 0.490666667 63.5090667 0.490666667 63.5090667 63.9989333 0 63.9989333"></polygon>
        <polygon id="path-3" points="0.388470659 0.558571429 148.212174 0.558571429 148.212174 24.6657143 0.388470659 24.6657143"></polygon>
    </defs>
    <g id="extras" stroke="none" stroke-width="1" fill="none" fill-rule="evenodd">
        <g id="Splash" transform="translate(-72.000000, -375.000000)">
            <g id="Group-9" transform="translate(72.000000, 375.000000)">
                <g id="Group-3">
                    <mask id="mask-2" fill="white">
                        <use xlink:href="#path-1"></use>
                    </mask>
                    <g id="Clip-2"></g>
                    <path d="M-0.000266666667,0.4896 L41.8344,0.4896 C41.2637333,1.62293333 41.2717333,3.14293333 41.6424,4.34026667 C42.1117333,5.8416 42.5384,6.8016 43.0557333,8.1776 L47.0344,9.05226667 L44.9624,3.79093333 C44.7304,2.64426667 45.0610667,1.5696 45.6530667,1.06293333 C45.9437333,0.772266667 46.2850667,0.582933333 46.6717333,0.4896 L47.9064,0.4896 L48.0290667,0.5136 C48.8557333,0.7536 49.4984,1.31626667 49.9064,2.19626667 C49.4770667,3.16693333 49.3277333,4.11093333 49.4637333,5.15093333 L50.2157333,9.73493333 L53.8050667,10.5002667 L52.8210667,5.01226667 C52.4450667,1.0416 58.0530667,1.60693333 58.0104,4.6976 L56.6264,11.1136 L60.1677333,11.8762667 L61.5544,5.45493333 C61.9304,4.5856 62.6930667,4.15893333 63.5090667,4.07093333 L63.5090667,11.7296 L62.9970667,12.4789333 L63.5090667,12.5882667 L63.5090667,14.1962667 C62.9090667,14.3482667 62.4157333,14.8256 62.2770667,15.4709333 C62.0850667,16.3589333 62.6344,17.2362667 63.5090667,17.4576 L63.5090667,18.5749333 L44.1384,14.4016 L43.4104,17.7589333 L63.5090667,22.0869333 L63.5090667,24.0282667 L37.6797333,18.4629333 L32.0877333,44.4069333 C30.3490667,52.4629333 34.7730667,60.4522667 42.3144,63.9989333 L-0.000266666667,63.9989333 L-0.000266666667,0.4896 Z M45.1330667,10.0762667 C46.0424,10.2682667 46.6237333,11.1642667 46.4290667,12.0709333 C46.2317333,12.9802667 45.3384,13.5589333 44.4317333,13.3616 C43.5250667,13.1669333 42.9437333,12.2709333 43.1410667,11.3616 C43.3330667,10.4549333 44.2290667,9.87893333 45.1330667,10.0762667 L45.1330667,10.0762667 Z M51.5197333,11.4336 C52.4264,11.6282667 53.0050667,12.5189333 52.8130667,13.4336 C52.6130667,14.3402667 51.7224,14.9189333 50.8104,14.7189333 C49.9064,14.5242667 49.3277333,13.6282667 49.5197333,12.7216 C49.7170667,11.8122667 50.6130667,11.2416 51.5197333,11.4336 L51.5197333,11.4336 Z M58.0050667,12.8282667 C58.9144,13.0229333 59.4904,13.9189333 59.2904,14.8309333 C59.1037333,15.7402667 58.2050667,16.3136 57.2930667,16.1189333 C56.3890667,15.9216 55.8104,15.0256 56.0050667,14.1189333 C56.2024,13.2096 57.0957333,12.6362667 58.0050667,12.8282667 L58.0050667,12.8282667 Z M59.7384,0.4896 L63.5090667,0.4896 L63.5090667,0.524266667 C62.5677333,0.606933333 61.5757333,0.8896 60.5730667,1.39093333 C60.3037333,1.0576 60.0264,0.7616 59.7384,0.4896 L59.7384,0.4896 Z M63.5090667,27.5029333 L63.5090667,27.9642667 L63.4450667,27.8709333 L62.9677333,28.1776 L62.6584,27.7002667 L62.0557333,28.0949333 L62.3597333,28.5722667 L61.8824,28.8789333 L62.2770667,29.4869333 L62.7490667,29.1802667 L63.0610667,29.6549333 L63.5090667,29.3669333 L63.5090667,30.1189333 L58.2290667,28.9856 L54.4317333,46.5989333 C53.5570667,50.6602667 54.9197333,54.8656 57.9250667,57.3269333 C59.9490667,56.6202667 62.1250667,54.0042667 63.1837333,49.0842667 L63.5090667,47.5722667 L63.5090667,49.3376 L63.3757333,49.4282667 L63.5090667,49.6362667 L63.5090667,55.4069333 C62.1810667,57.8282667 60.3624,59.4122667 58.1490667,60.3429333 C53.3677333,57.1509333 50.7704,51.0256 51.7810667,46.3696 L56.1810667,25.9189333 L63.5090667,27.5029333 Z M63.5090667,60.7242667 L63.5090667,63.9989333 L58.5544,63.9989333 C60.3890667,63.1562667 62.0717333,62.0469333 63.5090667,60.7242667 L63.5090667,60.7242667 Z M63.5090667,31.1749333 L63.5090667,31.5269333 L62.6850667,35.3509333 L60.3544,34.8496 L61.2504,30.6896 L63.5090667,31.1749333 Z M63.5090667,35.5269333 L63.5090667,39.9589333 L61.7730667,39.5882667 L62.6850667,35.3509333 L63.5090667,35.5269333 Z M56.6370667,27.3402667 L56.3304,26.8629333 L56.9330667,26.4709333 L57.2450667,26.9509333 L57.7224,26.6416 L58.1170667,27.2496 L57.6370667,27.5536 L57.9464,28.0309333 L57.3330667,28.4309333 L57.0290667,27.9509333 L56.5490667,28.2549333 L56.1624,27.6522667 L56.6370667,27.3402667 Z M63.5090667,28.6896 L63.5090667,29.0149333 L63.3517333,28.7829333 L63.5090667,28.6896 Z M52.5917333,46.6762667 L52.2850667,46.1936 L52.8904,45.8016 L53.1997333,46.2816 L53.6797333,45.9749333 L54.0717333,46.5776 L53.5944,46.8896 L53.9010667,47.3642667 L53.2930667,47.7616 L52.9810667,47.2816 L52.5037333,47.5936 L52.1090667,46.9856 L52.5917333,46.6762667 Z M57.2157333,58.3082667 L56.9037333,57.8229333 L57.5117333,57.4336 L57.8237333,57.9109333 L58.3010667,57.5989333 L58.6957333,58.2096 L58.2130667,58.5162667 L58.5224,58.9936 L57.9197333,59.3856 L57.6077333,58.9109333 L57.1277333,59.2122667 L56.7410667,58.6096 L57.2157333,58.3082667 Z M54.4664,37.3589333 L54.1570667,36.8789333 L54.7704,36.4842667 L55.0797333,36.9696 L55.5544,36.6602667 L55.9437333,37.2656 L55.4690667,37.5722667 L55.7704,38.0522667 L55.1677333,38.4416 L54.8584,37.9696 L54.3864,38.2762667 L53.9890667,37.6656 L54.4664,37.3589333 Z M59.4424,39.0842667 L60.3544,34.8496 L58.0637333,34.3536 L57.1517333,38.5882667 L59.4424,39.0842667 Z M59.1010667,51.9936 L58.2370667,55.9856 C59.2104,55.4416 60.2210667,54.2762667 61.0637333,52.4176 L59.1010667,51.9936 Z M56.7650667,51.4949333 L55.3837333,51.1989333 C55.5597333,52.1456 55.8530667,53.0416 56.2610667,53.8549333 L56.7650667,51.4949333 Z M57.6690667,47.3216 L58.5677333,43.1189333 L56.2797333,42.6256 L55.4637333,46.4229333 C55.4370667,46.5562667 55.4077333,46.6976 55.3837333,46.8336 L57.6690667,47.3216 Z M59.9944,47.8229333 L57.6690667,47.3216 L56.7650667,51.4949333 L59.1010667,51.9936 L59.9944,47.8229333 Z M60.9037333,43.6256 L59.9944,47.8229333 L62.3544,48.3322667 L63.2584,44.1296 L60.9037333,43.6256 Z M58.5677333,43.1189333 L60.9037333,43.6256 L61.7730667,39.5882667 L59.4424,39.0842667 L58.5677333,43.1189333 Z M49.4130667,51.8176 C46.8557333,55.4522667 43.6290667,57.2122667 39.7170667,58.3376 C44.2504,62.8602667 49.6610667,64.0202667 55.6690667,61.8229333 C52.7090667,59.1722667 50.4504,56.3136 49.4130667,51.8176 L49.4130667,51.8176 Z M46.7677333,56.1989333 C46.3490667,56.1082667 45.2264,56.3536 45.1650667,56.6362667 L44.4850667,59.8122667 C44.4237333,60.0789333 45.4237333,60.7456 45.7890667,60.7456 L46.7677333,56.1989333 Z M48.1570667,56.1562667 C48.6610667,56.2656 48.3944,56.2096 48.8957333,56.3136 C49.4130667,56.4282667 49.6770667,56.7962667 49.6290667,57.0149333 L48.7304,61.1882667 C48.6664,61.5002667 48.2264,61.6149333 47.8610667,61.5376 C47.3624,61.4282667 47.3677333,61.4282667 47.0210667,61.3536 C46.6717333,61.2816 46.2504,60.9269333 46.3064,60.6656 L47.2077333,56.5002667 C47.2530667,56.2709333 47.6930667,56.0522667 48.1570667,56.1562667 L48.1570667,56.1562667 Z M50.1250667,56.9109333 C50.5490667,57.0042667 51.4744,57.6922667 51.4104,57.9749333 L50.7224,61.1562667 C50.6664,61.4229333 49.4770667,61.6256 49.1464,61.4682667 L50.1250667,56.9109333 Z M40.3410667,22.5082667 L53.9437333,25.4362667 L49.5357333,45.8896 C48.5357333,50.5429333 43.6797333,55.0682667 38.0557333,56.0096 C35.5490667,53.2762667 34.5250667,49.4896 35.6744,44.1669333 L40.3410667,22.5082667 Z M45.6157333,31.2789333 C45.9250667,31.3509333 46.1250667,31.6576 46.0557333,31.9589333 C45.9944,32.2682667 45.6877333,32.4682667 45.3864,32.3962667 C45.0717333,32.3322667 44.8744,32.0256 44.9437333,31.7189333 C45.0077333,31.4096 45.3117333,31.2176 45.6157333,31.2789333 L45.6157333,31.2789333 Z M50.1997333,38.1882667 C50.5064,38.2549333 50.7037333,38.5562667 50.6370667,38.8656 C50.5730667,39.1776 50.2664,39.3696 49.9677333,39.3029333 C49.6530667,39.2336 49.4584,38.9322667 49.5250667,38.6309333 C49.5917333,38.3189333 49.8930667,38.1189333 50.1997333,38.1882667 L50.1997333,38.1882667 Z M43.1810667,42.5989333 C43.4877333,42.6602667 43.6877333,42.9642667 43.6210667,43.2709333 C43.5544,43.5829333 43.2530667,43.7749333 42.9437333,43.7136 C42.6344,43.6469333 42.4424,43.3376 42.5037333,43.0362667 C42.5730667,42.7242667 42.8744,42.5269333 43.1810667,42.5989333 L43.1810667,42.5989333 Z M38.6264,35.6949333 C38.9330667,35.7642667 39.1277333,36.0682667 39.0610667,36.3696 C38.9944,36.6762667 38.6930667,36.8762667 38.3864,36.8069333 C38.0744,36.7456 37.8797333,36.4362667 37.9490667,36.1296 C38.0130667,35.8229333 38.3170667,35.6309333 38.6264,35.6949333 L38.6264,35.6949333 Z M39.5704,36.7402667 C38.8770667,35.4949333 39.6504,32.9909333 41.5037333,33.5802667 C42.2504,31.9509333 44.1650667,31.8762667 45.2077333,33.1989333 C46.7277333,32.4549333 48.6664,33.4656 48.3250667,35.0522667 C50.3490667,35.4229333 49.9304,37.8656 48.9330667,38.7562667 C49.4717333,39.9802667 48.8530667,42.3802667 46.8530667,41.8789333 C46.5090667,43.4736 44.3330667,43.5936 43.2530667,42.2922667 C41.7544,43.0629333 40.0370667,42.2122667 40.0317333,40.4176 C38.0984,40.1989333 38.4290667,37.5936 39.5704,36.7402667 L39.5704,36.7402667 Z M47.8130667,37.7562667 C48.6157333,37.1002667 48.1304,35.9936 46.4130667,36.5989333 C46.1810667,36.6762667 46.0050667,36.5376 46.2130667,36.2922667 C47.2450667,35.0629333 46.5970667,33.8949333 45.1224,34.8069333 C44.9624,34.9082667 44.6664,34.8496 44.5650667,34.6896 C43.6050667,33.2496 42.5304,34.0469333 42.9597333,35.5936 C43.0504,35.9002667 42.8290667,35.9562667 42.6557333,35.7856 C41.3304,34.5322667 40.4264,35.3749333 40.8984,36.2656 C41.0984,36.6576 40.9250667,37.5002667 40.5864,37.7242667 C39.7784,38.3082667 40.2664,39.4789333 41.9864,38.8789333 C42.2184,38.7962667 42.3890667,38.9429333 42.1864,39.1882667 C41.1517333,40.4122667 41.8050667,41.5776 43.2770667,40.6656 C43.4397333,40.5722667 43.7304,40.6256 43.8317333,40.7856 C44.7917333,42.2229333 45.8690667,41.4336 45.4344,39.8842667 C45.3464,39.5776 45.5704,39.5216 45.7464,39.6869333 C47.0664,40.9482667 48.0690667,40.0042667 47.5010667,39.2122667 C47.2637333,38.8896 47.4530667,37.9989333 47.8130667,37.7562667 L47.8130667,37.7562667 Z M43.3917333,38.0789333 L41.8744,37.7562667 L42.1917333,36.2869333 L43.7064,36.6096 L44.0290667,35.1162667 L45.4744,35.4309333 L45.1464,36.9216 L46.6557333,37.2389333 L46.3357333,38.7136 L44.8317333,38.3909333 L44.5090667,39.8896 L43.0637333,39.5776 L43.3917333,38.0789333 Z" id="Fill-1" fill="#FFFFFF" mask="url(#mask-2)"></path>
                </g>
                <path d="M82.2869855,19.4874101 L86.7410114,19.4874101 L84.6290964,12.0656475 L84.4096072,12.0656475 L82.2869855,19.4874101 Z M79,25.2365108 L83.3630182,11 L85.7345728,11 L90.0788541,25.2365108 L88.4353614,25.2365108 L87.1692831,20.8039568 L81.909571,20.8039568 L80.6622296,25.2365108 L79,25.2365108 Z M94.6640382,25.0665468 L90.9809014,14.9415468 L92.4289952,14.9415468 L95.3974535,23.169964 L98.0607683,14.9415468 L99.4981552,14.9415468 L96.0077407,25.4145683 C95.5312884,26.8255396 95.0253925,27.7751799 94.4900528,28.2634892 C93.9493598,28.7544964 93.2186211,29 92.2951602,29 C92.137235,29 91.9819865,28.9919065 91.8294147,28.9703237 C91.6795196,28.9514388 91.5323012,28.9244604 91.3904362,28.8866906 L91.401143,27.567446 C91.5483614,27.602518 91.6875497,27.6267986 91.8240613,27.6375899 C91.960573,27.6564748 92.0863778,27.6618705 92.1934457,27.6618705 C92.8893873,27.6618705 93.4247269,27.4703237 93.7914346,27.0845324 C94.1581422,26.698741 94.4472256,26.0296763 94.6640382,25.0665468 L94.6640382,25.0665468 Z M109.294871,14.9415468 L109.294871,25.2365108 L108.002026,25.2365108 L108.002026,23.682554 C107.439919,24.278777 106.885842,24.7185252 106.331766,24.9964029 C105.783043,25.2742806 105.202199,25.4118705 104.597265,25.4118705 C103.751429,25.4118705 103.098314,25.1636691 102.637922,24.6672662 C102.180207,24.1708633 101.944657,23.4667266 101.944657,22.557554 L101.944657,14.9415468 L103.349924,14.9415468 L103.349924,22.028777 C103.349924,22.7976619 103.481082,23.3453237 103.738045,23.6771583 C103.992332,24.006295 104.412573,24.1708633 104.99074,24.1708633 C105.491283,24.1708633 105.983795,24.0413669 106.457571,23.7904676 C106.934023,23.5395683 107.410475,23.1510791 107.878897,22.6223022 L107.878897,14.9415468 L109.294871,14.9415468 Z M113.218911,25.2365108 L113.218911,14.9415468 L114.527816,14.9415468 L114.527816,16.4982014 C115.084569,15.9019784 115.638646,15.4649281 116.184692,15.1816547 C116.733415,14.9010791 117.303552,14.7634892 117.903132,14.7634892 C118.756999,14.7634892 119.415467,15.006295 119.873182,15.5107914 C120.333574,16.0098921 120.563771,16.7140288 120.563771,17.6151079 L120.563771,25.2365108 L119.179918,25.2365108 L119.179918,18.1519784 C119.179918,17.3857914 119.048759,16.8354317 118.791796,16.4982014 C118.534833,16.1690647 118.117268,16.0017986 117.536425,16.0017986 C117.030529,16.0017986 116.53534,16.1285971 116.050857,16.3929856 C115.569052,16.6519784 115.089923,17.0377698 114.6215,17.5584532 L114.6215,25.2365108 L113.218911,25.2365108 Z M128.44397,23.9955036 L128.44397,25.2041367 C128.229834,25.2715827 128.004992,25.3228417 127.758735,25.3606115 C127.512479,25.3983813 127.239456,25.4118705 126.931636,25.4118705 C126.168777,25.4118705 125.58258,25.2446043 125.191782,24.9127698 C124.803661,24.5809353 124.605585,24.0818345 124.605585,23.4100719 L124.605585,16.1636691 L123.090574,16.1636691 L123.090574,14.9415468 L124.605585,14.9415468 L124.605585,11.6151079 L126.096506,11.6151079 L126.096506,14.9415468 L128.422557,14.9415468 L128.422557,16.1636691 L126.096506,16.1636691 L126.096506,22.7544964 C126.096506,23.3480216 126.184837,23.7284173 126.372206,23.8956835 C126.556898,24.0656475 126.910222,24.1519784 127.440208,24.1519784 C127.694495,24.1519784 128.010345,24.1034173 128.39579,24.006295 L128.44397,23.9955036 Z M136.409824,22.5305755 L136.409824,19.7086331 C134.704767,20.0539568 133.497577,20.4478417 132.777545,20.8902878 C132.06019,21.3354317 131.698835,21.8965827 131.698835,22.5818345 C131.698835,23.051259 131.851407,23.4235612 132.148521,23.7014388 C132.448311,23.9739209 132.855169,24.1115108 133.366418,24.1115108 C133.80272,24.1115108 134.265789,23.9847122 134.763655,23.7284173 C135.261521,23.4748201 135.810244,23.0755396 136.409824,22.5305755 L136.409824,22.5305755 Z M136.353614,23.8417266 C135.877161,24.3624101 135.371265,24.7508993 134.830572,25.0044964 C134.287202,25.2661871 133.717066,25.3902878 133.112132,25.3902878 C132.279679,25.3902878 131.599797,25.131295 131.077841,24.6052158 C130.555885,24.0818345 130.298922,23.3965827 130.298922,22.557554 C130.298922,21.4865108 130.764668,20.6232014 131.698835,19.9784173 C132.63568,19.3309353 134.204225,18.7940647 136.409824,18.3624101 L136.409824,17.6151079 C136.409824,17.1429856 136.222455,16.7598921 135.839687,16.455036 C135.459596,16.1501799 134.967084,16.0017986 134.36215,16.0017986 C133.808074,16.0017986 133.320914,16.1393885 132.892643,16.4118705 C132.464371,16.6870504 132.12443,17.0917266 131.862114,17.6151079 L130.633509,16.9541367 C131.00557,16.2284173 131.51682,15.6807554 132.148521,15.3138489 C132.793605,14.9442446 133.55111,14.7634892 134.439774,14.7634892 C135.52116,14.7634892 136.369674,15.0305755 136.963901,15.5620504 C137.560804,16.1016187 137.857918,16.8516187 137.857918,17.8120504 L137.857918,23.5638489 C137.857918,23.8255396 137.879332,24.0872302 137.916805,24.3381295 C137.946249,24.5998201 137.999783,24.8507194 138.0667,25.0854317 L138.0667,25.2365108 L136.503509,25.2365108 L136.353614,23.8417266 Z M141.602619,25.2365108 L141.602619,14.9415468 L142.914201,14.9415468 L142.914201,16.4982014 C143.484338,15.8884892 144.033061,15.4406475 144.555017,15.1708633 C145.076973,14.8956835 145.641756,14.7634892 146.249367,14.7634892 C146.875714,14.7634892 147.405701,14.9091727 147.817912,15.2059353 C148.22477,15.4973022 148.529914,15.9289568 148.711929,16.4982014 C149.276713,15.8911871 149.830789,15.448741 150.363452,15.1708633 C150.896115,14.8956835 151.476959,14.7634892 152.100629,14.7634892 C152.930406,14.7634892 153.578167,15.006295 154.027852,15.5053957 C154.482891,16.0017986 154.713087,16.7059353 154.713087,17.6151079 L154.713087,25.2365108 L153.313174,25.2365108 L153.313174,18.0791367 C153.313174,17.3426259 153.182015,16.8111511 152.930406,16.4847122 C152.678796,16.1636691 152.271938,16.0017986 151.707155,16.0017986 C151.195905,16.0017986 150.703393,16.1258993 150.232294,16.3848921 C149.766549,16.6384892 149.30348,17.0269784 148.837734,17.5584532 L148.837734,25.2365108 L147.483325,25.2365108 L147.483325,18.1142086 C147.483325,17.3723022 147.352167,16.8354317 147.100557,16.4982014 C146.846271,16.1690647 146.431382,16.0017986 145.858569,16.0017986 C145.360703,16.0017986 144.878897,16.1232014 144.423859,16.3714029 C143.96882,16.6196043 143.495044,17.0134892 143.007885,17.5584532 L143.007885,25.2365108 L141.602619,25.2365108 Z M158.519352,12.7401079 L160.202995,12.7401079 L160.202995,11 L158.519352,11 L158.519352,12.7401079 Z M158.639803,25.2365108 L160.087897,25.2365108 L160.087897,14.9415468 L158.639803,14.9415468 L158.639803,25.2365108 Z M164.713232,19.1555755 L169.69189,19.1555755 C169.67583,18.1735612 169.450987,17.3992806 169.012009,16.830036 C168.567677,16.2634892 167.98148,15.9829137 167.240035,15.9829137 C166.477176,15.9829137 165.874919,16.2580935 165.43594,16.8111511 C165.002315,17.3642086 164.756059,18.1465827 164.713232,19.1555755 L164.713232,19.1555755 Z M170.377125,22.3471223 L171.415684,23 C171.019533,23.8228417 170.48687,24.4271583 169.817695,24.823741 C169.148521,25.2203237 168.321421,25.4118705 167.333719,25.4118705 C166.006077,25.4118705 164.986255,24.9532374 164.290313,24.0440647 C163.586342,23.1375899 163.235694,21.8129496 163.235694,20.0755396 C163.235694,18.4190647 163.591695,17.1241007 164.30102,16.1798561 C165.007668,15.2302158 165.984663,14.7634892 167.218621,14.7634892 C168.479346,14.7634892 169.456341,15.2167266 170.152282,16.1232014 C170.850901,17.0350719 171.196195,18.3084532 171.196195,19.9406475 L171.196195,20.375 L164.694495,20.375 L164.694495,20.7122302 C164.694495,21.7751799 164.948781,22.6223022 165.452,23.2508993 C165.957896,23.8767986 166.627071,24.1897482 167.470231,24.1897482 C168.112638,24.1897482 168.682775,24.0359712 169.177964,23.7122302 C169.681184,23.4019784 170.077335,22.9406475 170.377125,22.3471223 L170.377125,22.3471223 Z M174.19142,25.2365108 L174.19142,14.9415468 L175.500326,14.9415468 L175.500326,16.4982014 C176.059755,15.9019784 176.608479,15.4649281 177.157202,15.1816547 C177.705925,14.9010791 178.276062,14.7634892 178.875642,14.7634892 C179.724155,14.7634892 180.382623,15.006295 180.848369,15.5107914 C181.303407,16.0098921 181.538957,16.7140288 181.538957,17.6151079 L181.538957,25.2365108 L180.152427,25.2365108 L180.152427,18.1519784 C180.152427,17.3857914 180.021269,16.8354317 179.764306,16.4982014 C179.51002,16.1690647 179.092455,16.0017986 178.511611,16.0017986 C178.003038,16.0017986 177.507849,16.1285971 177.02069,16.3929856 C176.538884,16.6519784 176.065109,17.0377698 175.59401,17.5584532 L175.59401,25.2365108 L174.19142,25.2365108 Z M189.41648,23.9955036 L189.41648,25.2041367 C189.202344,25.2715827 188.977501,25.3228417 188.731245,25.3606115 C188.484989,25.3983813 188.214642,25.4118705 187.904145,25.4118705 C187.135933,25.4118705 186.557766,25.2446043 186.164291,24.9127698 C185.773493,24.5809353 185.578094,24.0818345 185.578094,23.4100719 L185.578094,16.1636691 L184.063083,16.1636691 L184.063083,14.9415468 L185.578094,14.9415468 L185.578094,11.6151079 L187.069015,11.6151079 L187.069015,14.9415468 L189.395066,14.9415468 L189.395066,16.1636691 L187.069015,16.1636691 L187.069015,22.7544964 C187.069015,23.3480216 187.157346,23.7284173 187.342039,23.8956835 C187.529408,24.0656475 187.885408,24.1519784 188.412718,24.1519784 C188.664328,24.1519784 188.982855,24.1034173 189.362946,24.006295 L189.41648,23.9955036 Z M192.55357,20.0755396 C192.55357,21.4244604 192.794473,22.4496403 193.278955,23.1564748 C193.766114,23.868705 194.462056,24.2194245 195.372133,24.2194245 C196.274181,24.2194245 196.964769,23.868705 197.446575,23.1564748 C197.923027,22.4496403 198.166606,21.4298561 198.166606,20.0971223 C198.166606,18.7535971 197.92838,17.7365108 197.451928,17.0350719 C196.975476,16.3309353 196.279534,15.9829137 195.372133,15.9829137 C194.462056,15.9829137 193.766114,16.3309353 193.278955,17.0350719 C192.794473,17.7365108 192.55357,18.7508993 192.55357,20.0755396 L192.55357,20.0755396 Z M191.116183,20.0755396 C191.116183,18.3893885 191.485568,17.0809353 192.235043,16.1555755 C192.976488,15.2248201 194.023077,14.7634892 195.372133,14.7634892 C196.718513,14.7634892 197.765102,15.2248201 198.5119,16.1555755 C199.261376,17.0809353 199.636114,18.3893885 199.636114,20.0755396 C199.636114,21.7697842 199.261376,23.0836331 198.5119,24.0143885 C197.765102,24.9478417 196.718513,25.4118705 195.372133,25.4118705 C194.023077,25.4118705 192.976488,24.9478417 192.235043,24.0143885 C191.485568,23.0836331 191.116183,21.7697842 191.116183,20.0755396 L191.116183,20.0755396 Z M214.352601,17.5206835 C213.993923,16.9784173 213.595095,16.5791367 213.16147,16.3228417 C212.727845,16.0665468 212.240686,15.942446 211.702669,15.942446 C210.86754,15.942446 210.217102,16.2904676 209.759387,16.9865108 C209.293641,17.6879496 209.058092,18.669964 209.058092,19.9406475 C209.058092,21.3651079 209.293641,22.4307554 209.759387,23.1348921 C210.217102,23.8390288 210.918397,24.1897482 211.855241,24.1897482 C212.371844,24.1897482 212.83759,24.0629496 213.260508,23.8093525 C213.678073,23.5476619 214.050134,23.1672662 214.352601,22.6627698 L214.352601,17.5206835 Z M215.771251,11 L215.771251,22.028777 C215.771251,22.9055755 215.776604,23.5638489 215.795341,24.006295 C215.822108,24.448741 215.854228,24.8642086 215.899732,25.2365108 L214.812993,25.2365108 L214.478406,23.9442446 C214.098314,24.4541367 213.678073,24.8264388 213.233741,25.0503597 C212.784056,25.2796763 212.251393,25.3902878 211.625045,25.3902878 C210.353614,25.3902878 209.365912,24.926259 208.659264,23.9847122 C207.949939,23.0485612 207.599291,21.7293165 207.599291,20.0404676 C207.599291,18.3516187 207.955292,17.051259 208.66997,16.1366906 C209.381972,15.2194245 210.391087,14.7634892 211.702669,14.7634892 C212.304927,14.7634892 212.826883,14.8741007 213.271215,15.1007194 C213.715547,15.3273381 214.076901,15.6672662 214.352601,16.1232014 L214.352601,11 L215.771251,11 Z M220.297548,19.1555755 L225.27353,19.1555755 C225.260146,18.1735612 225.035303,17.3992806 224.590972,16.830036 C224.151993,16.2634892 223.560443,15.9829137 222.821674,15.9829137 C222.058815,15.9829137 221.459235,16.2580935 221.020256,16.8111511 C220.581278,17.3642086 220.340375,18.1465827 220.297548,19.1555755 L220.297548,19.1555755 Z M225.958764,22.3471223 L227,23 C226.598495,23.8228417 226.063156,24.4271583 225.399334,24.823741 C224.73016,25.2203237 223.905737,25.4118705 222.918035,25.4118705 C221.587716,25.4118705 220.570571,24.9532374 219.874629,24.0440647 C219.167981,23.1375899 218.817333,21.8129496 218.817333,20.0755396 C218.817333,18.4190647 219.173334,17.1241007 219.879983,16.1798561 C220.589308,15.2302158 221.563626,14.7634892 222.802937,14.7634892 C224.060985,14.7634892 225.040657,15.2167266 225.733922,16.1232014 C226.435217,17.0350719 226.780511,18.3084532 226.780511,19.9406475 L226.780511,20.375 L220.276134,20.375 L220.276134,20.7122302 C220.276134,21.7751799 220.527744,22.6223022 221.03364,23.2508993 C221.542212,23.8767986 222.211387,24.1897482 223.046517,24.1897482 C223.696954,24.1897482 224.264414,24.0359712 224.76228,23.7122302 C225.2655,23.4019784 225.661651,22.9406475 225.958764,22.3471223 L225.958764,22.3471223 Z" id="Fill-4" fill="#FFFFFF"></path>
                <g id="Group-8" transform="translate(79.000000, 34.000000)">
                    <mask id="mask-4" fill="white">
                        <use xlink:href="#path-3"></use>
                    </mask>
                    <g id="Clip-7"></g>
                    <path d="M6.03887186,19.7264286 L0.388470659,0.810357143 L3.95376407,0.810357143 L8.26851856,16.2416071 L12.5350934,0.810357143 L16.1137701,0.810357143 L10.4767521,19.7264286 L6.03887186,19.7264286 Z M25.6185425,13.08625 C24.0687641,13.3032143 22.9365425,13.6380357 22.2299078,14.0960714 C21.5152431,14.5567857 21.1592491,15.18625 21.1592491,15.9710714 C21.1592491,16.4344643 21.2877281,16.8014286 21.5420096,17.0532143 C21.8016443,17.3103571 22.1576383,17.43625 22.6206982,17.43625 C23.1292611,17.43625 23.6324707,17.3157143 24.1303269,17.08 C24.6228299,16.8389286 25.1233629,16.4773214 25.6185425,15.9951786 L25.6185425,13.08625 Z M25.9745365,19.7264286 L25.6988419,18.5291071 C25.0778599,18.9791071 24.432788,19.3139286 23.7529198,19.5389286 C23.0784048,19.7639286 22.3717701,19.87375 21.6330156,19.87375 C20.4981174,19.87375 19.6121473,19.555 18.9617222,18.9041071 C18.3166503,18.2666071 17.9900994,17.3773214 17.9900994,16.2416071 C17.9900994,14.7523214 18.6137581,13.57375 19.8637521,12.7166071 C21.1110695,11.8541071 23.0650216,11.2621429 25.7175784,10.9326786 L25.7175784,9.86928571 C25.7175784,9.37375 25.554303,8.98 25.2223988,8.70946429 C24.8824647,8.43625 24.4113749,8.29964286 23.7930695,8.29964286 C23.1720874,8.29964286 22.6126683,8.43089286 22.1041054,8.69875 C21.6035725,8.95857143 21.1699557,9.35232143 20.8086084,9.86928571 L18.6244647,8.48446429 C19.1919138,7.60053571 19.9092551,6.94160714 20.7791653,6.49696429 C21.6517521,6.05232143 22.6742311,5.82732143 23.8385725,5.82732143 C25.4151174,5.82732143 26.6436982,6.18089286 27.5216383,6.89339286 C28.4022551,7.60589286 28.8439018,8.59964286 28.8439018,9.86928571 L28.8439018,17.8808929 C28.8439018,18.0951786 28.8599617,18.3496429 28.8974347,18.6496429 C28.9268778,18.9523214 28.9777341,19.3085714 29.0473269,19.7264286 L25.9745365,19.7264286 Z M34.5478359,19.7264286 L37.7731952,19.7264286 L37.7731952,0.810357143 L34.5478359,0.810357143 L34.5478359,19.7264286 Z M51.1430455,16.0996429 L51.1430455,9.62553571 C50.6987222,9.21571429 50.2811653,8.92910714 49.9091114,8.74964286 C49.5343808,8.57285714 49.1355605,8.48446429 48.7340635,8.48446429 C47.8400635,8.48446429 47.138782,8.87017857 46.6328958,9.64964286 C46.1189796,10.4291071 45.8673749,11.5139286 45.8673749,12.9041071 C45.8673749,14.2969643 46.1189796,15.3791071 46.6328958,16.1371429 C47.138782,16.8951786 47.8507701,17.2728571 48.7581533,17.2728571 C49.1730335,17.2728571 49.563824,17.1844643 49.9412311,17.005 C50.313285,16.8282143 50.7094287,16.5255357 51.1430455,16.0996429 L51.1430455,16.0996429 Z M51.6141353,18.26125 C51.1323389,18.8478571 50.5943329,19.2817857 49.9920874,19.5603571 C49.3978719,19.8416071 48.7180036,19.9782143 47.9444527,19.9782143 C46.381291,19.9782143 45.1045305,19.3246429 44.1061413,18.0094643 C43.1131054,16.6969643 42.6179257,14.9907143 42.6179257,12.9041071 C42.6179257,10.7960714 43.1023988,9.08982143 44.0686683,7.78267857 C45.0376144,6.48089286 46.2876084,5.82732143 47.8186503,5.82732143 C48.5038719,5.82732143 49.1034407,5.95053571 49.6387701,6.19696429 C50.1607162,6.44339286 50.6612491,6.83714286 51.1430455,7.39160714 L51.1430455,0.810357143 L54.290782,0.810357143 L54.290782,16.5496429 C54.290782,16.8764286 54.3068419,17.3157143 54.3309317,17.8433929 C54.3576982,18.3764286 54.3951713,19.0032143 54.4406743,19.7264286 L51.9594228,19.7264286 L51.6141353,18.26125 Z M62.3100156,11.1416071 L67.2859018,11.1416071 C67.2859018,10.2308929 67.0664168,9.52375 66.6274467,9.0175 C66.1884766,8.51125 65.5782012,8.25410714 64.8100036,8.25410714 C64.0819557,8.25410714 63.5011234,8.50589286 63.0621533,9.01214286 C62.6285365,9.51839286 62.3715784,10.2255357 62.3100156,11.1416071 L62.3100156,11.1416071 Z M70.291776,17.0478571 C69.7751832,18.0094643 69.0578419,18.7433929 68.1343988,19.2389286 C67.2136323,19.7317857 66.1215605,19.9782143 64.8608599,19.9782143 C63.0407401,19.9782143 61.624794,19.3594643 60.6103449,18.1246429 C59.5905425,16.8844643 59.0846563,15.1594643 59.0846563,12.9308929 C59.0846563,10.7023214 59.5905425,8.95857143 60.5996383,7.71035714 C61.6087341,6.45946429 63.0166503,5.82732143 64.8100036,5.82732143 C66.5980036,5.82732143 67.9764766,6.43267857 68.9695126,7.64071429 C69.9518419,8.85410714 70.4443449,10.555 70.4443449,12.7514286 C70.4443449,12.8264286 70.4389916,12.9416071 70.428285,13.0969643 C70.4229317,13.2603571 70.4175784,13.3701786 70.4175784,13.4478571 L62.2564826,13.4639286 C62.2725425,14.7523214 62.5241473,15.7192857 63.0059437,16.3675 C63.4850635,17.0103571 64.2024048,17.3398214 65.1472611,17.3398214 C65.7441533,17.3398214 66.2580695,17.2005357 66.6970395,16.9273214 C67.1306563,16.6514286 67.5428599,16.2014286 67.9309737,15.5880357 L70.291776,17.0478571 Z M78.4073689,16.2148214 C78.8516922,16.6139286 79.2692491,16.9058929 79.6493329,17.0853571 C80.0374467,17.2675 80.4335904,17.36125 80.8377641,17.36125 C81.7371174,17.36125 82.4357222,16.9648214 82.944285,16.18 C83.4501713,15.3951786 83.7071293,14.2969643 83.7071293,12.9041071 C83.7071293,11.5139286 83.4555246,10.4344643 82.9549916,9.67642857 C82.4464287,8.91303571 81.7371174,8.53 80.8109976,8.53 C80.4095006,8.53 80.0106802,8.62910714 79.6305964,8.81928571 C79.2424826,9.01214286 78.8356323,9.32017857 78.4073689,9.73803571 L78.4073689,16.2148214 Z M78.4073689,18.4246429 L78.4073689,24.6657143 L75.254279,24.6657143 L75.254279,6.0925 L77.5909916,6.0925 L77.936279,7.57910714 C78.5171114,6.955 79.0952671,6.505 79.6653928,6.23982143 C80.2355186,5.96125 80.8886204,5.82732143 81.6273749,5.82732143 C83.1905365,5.82732143 84.4646204,6.48089286 85.452303,7.79875 C86.437309,9.11125 86.9271353,10.8121429 86.9271353,12.9041071 C86.9271353,15.0175 86.4480156,16.7291071 85.4790695,18.0255357 C84.5074467,19.33 83.262806,19.9782143 81.7264108,19.9782143 C81.0411892,19.9782143 80.4389437,19.8576786 79.9169976,19.61125 C79.3843449,19.3648214 78.8811353,18.9683929 78.4073689,18.4246429 L78.4073689,18.4246429 Z M94.0336323,11.1416071 L99.0095186,11.1416071 C99.0095186,10.2308929 98.7900335,9.52375 98.3510635,9.0175 C97.9067401,8.51125 97.2991413,8.25410714 96.5309437,8.25410714 C95.8055725,8.25410714 95.2247401,8.50589286 94.7857701,9.01214286 C94.3521533,9.51839286 94.0951952,10.2255357 94.0336323,11.1416071 L94.0336323,11.1416071 Z M102.015393,17.0478571 C101.504153,18.0094643 100.781459,18.7433929 99.8553389,19.2389286 C98.9372491,19.7317857 97.8425006,19.9782143 96.5844766,19.9782143 C94.7643569,19.9782143 93.3484108,19.3594643 92.3339617,18.1246429 C91.3141593,16.8844643 90.8055964,15.1594643 90.8055964,12.9308929 C90.8055964,10.7023214 91.3141593,8.95857143 92.3232551,7.71035714 C93.3323509,6.45946429 94.7375904,5.82732143 96.5309437,5.82732143 C98.3135904,5.82732143 99.7054467,6.43267857 100.687776,7.64071429 C101.670105,8.85410714 102.167962,10.555 102.167962,12.7514286 C102.167962,12.8264286 102.162608,12.9416071 102.157255,13.0969643 C102.146549,13.2603571 102.141195,13.3701786 102.141195,13.4478571 L93.9800994,13.4639286 C93.9961593,14.7523214 94.2477641,15.7192857 94.7268838,16.3675 C95.2086802,17.0103571 95.9260216,17.3398214 96.8762311,17.3398214 C97.4677701,17.3398214 97.9843629,17.2005357 98.4179796,16.9273214 C98.8515964,16.6514286 99.2664766,16.2014286 99.6519138,15.5880357 L102.015393,17.0478571 Z M106.951129,19.7264286 L106.951129,6.0925 L109.919531,6.0925 L109.919531,7.705 C110.765351,7.01928571 111.509459,6.53178571 112.146501,6.25589286 C112.788896,5.97196429 113.441998,5.82732143 114.121866,5.82732143 C115.38792,5.82732143 116.343483,6.20232143 116.983201,6.94696429 C117.620243,7.69428571 117.938764,8.7925 117.938764,10.2576786 L117.938764,19.7264286 L114.718758,19.7264286 L114.718758,10.8844643 C114.718758,9.99517857 114.603662,9.37375 114.362764,9.00678571 C114.127219,8.63446429 113.725722,8.45767857 113.166303,8.45767857 C112.695213,8.45767857 112.21074,8.57821429 111.718237,8.82464286 C111.220381,9.06839286 110.698435,9.45142857 110.149722,9.96839286 L110.149722,19.7264286 L106.951129,19.7264286 Z M116.450549,0.558571429 C116.23374,1.60589286 115.904513,2.38267857 115.470896,2.89160714 C115.042632,3.38714286 114.488566,3.64428571 113.814051,3.64428571 C113.626686,3.64428571 113.458057,3.63357143 113.308165,3.61214286 C113.150243,3.59339286 113.008381,3.55589286 112.874549,3.51839286 L111.745004,3.17285714 C111.581728,3.13267857 111.434513,3.09517857 111.30068,3.07375 C111.164171,3.05232143 111.038369,3.04160714 110.91792,3.04160714 C110.631519,3.04160714 110.401327,3.12196429 110.221992,3.27732143 C110.045333,3.44071429 109.903471,3.6925 109.799081,4.03803571 L108.404549,4.03803571 C108.607974,3.01214286 108.921141,2.25946429 109.344051,1.77732143 C109.766962,1.28982143 110.315674,1.04875 110.995543,1.04875 C111.174878,1.04875 111.351537,1.06482143 111.536225,1.09428571 C111.718237,1.12375 111.900249,1.16660714 112.100998,1.23089286 L113.265339,1.53892857 C113.364375,1.57642857 113.474117,1.60589286 113.589213,1.62464286 C113.704309,1.64071429 113.830111,1.65142857 113.96662,1.65142857 C114.236962,1.65142857 114.4618,1.55767857 114.646489,1.37285714 C114.828501,1.19607143 114.96501,0.920178571 115.058692,0.558571429 L116.450549,0.558571429 Z M130.339668,13.08625 C128.792566,13.3032143 127.657668,13.6380357 126.94568,14.0960714 C126.241722,14.5567857 125.885728,15.18625 125.885728,15.9710714 C125.885728,16.4344643 126.006177,16.8014286 126.265812,17.0532143 C126.52277,17.3103571 126.878764,17.43625 127.344501,17.43625 C127.850387,17.43625 128.353596,17.3157143 128.848776,17.08 C129.341279,16.8389286 129.841812,16.4773214 130.339668,15.9951786 L130.339668,13.08625 Z M130.701016,19.7264286 L130.417291,18.5291071 C129.801662,18.9791071 129.153914,19.3139286 128.474046,19.5389286 C127.799531,19.7639286 127.092896,19.87375 126.356818,19.87375 C125.22192,19.87375 124.333273,19.555 123.680171,18.9041071 C123.035099,18.2666071 122.711225,17.3773214 122.711225,16.2416071 C122.711225,14.7523214 123.340237,13.57375 124.584878,12.7166071 C125.832195,11.8541071 127.783471,11.2621429 130.438704,10.9326786 L130.438704,9.86928571 C130.438704,9.37375 130.278105,8.98 129.943525,8.70946429 C129.60359,8.43625 129.132501,8.29964286 128.514195,8.29964286 C127.893213,8.29964286 127.333794,8.43089286 126.825231,8.69875 C126.324698,8.95857143 125.891081,9.35232143 125.529734,9.86928571 L123.34559,8.48446429 C123.910363,7.60053571 124.630381,6.94160714 125.502968,6.49696429 C126.372878,6.05232143 127.395357,5.82732143 128.562375,5.82732143 C130.141596,5.82732143 131.364824,6.18089286 132.242764,6.89339286 C133.126057,7.60589286 133.565028,8.59964286 133.565028,9.86928571 L133.565028,17.8808929 C133.565028,18.0951786 133.581087,18.3496429 133.61856,18.6496429 C133.648004,18.9523214 133.701537,19.3085714 133.768453,19.7264286 L130.701016,19.7264286 Z M138.123357,17.2407143 L140.304824,15.5317857 C140.821417,16.1960714 141.332656,16.6916071 141.846572,17.0103571 C142.352459,17.3264286 142.882435,17.4871429 143.431147,17.4871429 C144.009303,17.4871429 144.47504,17.3505357 144.80962,17.08 C145.149554,16.8067857 145.318183,16.4398214 145.318183,15.9710714 C145.318183,15.2907143 144.606195,14.6826786 143.174189,14.1603571 C143.02162,14.0960714 142.911878,14.0505357 142.834255,14.02375 C141.134584,13.3755357 139.994333,12.7567857 139.42956,12.1514286 C138.856758,11.54875 138.56768,10.7746429 138.56768,9.81303571 C138.56768,8.64517857 139.001297,7.69428571 139.871207,6.94696429 C140.738441,6.20232143 141.867986,5.82732143 143.251812,5.82732143 C144.183285,5.82732143 145.018399,5.99875 145.76786,6.33357143 C146.519998,6.67375 147.210572,7.19607143 147.847614,7.90857143 L145.813363,9.67642857 C145.374393,9.21035714 144.935423,8.86482143 144.501806,8.63982143 C144.068189,8.41482143 143.623866,8.29964286 143.163483,8.29964286 C142.620123,8.29964286 142.197213,8.42553571 141.886722,8.66660714 C141.578908,8.90767857 141.429016,9.23714286 141.429016,9.64964286 C141.429016,10.1585714 142.138327,10.6808929 143.570333,11.2139286 C143.953093,11.3558929 144.250201,11.4710714 144.469686,11.5541071 C145.917752,12.1139286 146.900081,12.7005357 147.424704,13.3273214 C147.952004,13.9460714 148.214315,14.7817857 148.214315,15.82375 C148.214315,17.0853571 147.780698,18.1005357 146.910788,18.8639286 C146.043554,19.6326786 144.88992,20.0130357 143.449884,20.0130357 C142.331046,20.0130357 141.33801,19.7933929 140.481483,19.3433929 C139.630309,18.9041071 138.846051,18.1996429 138.123357,17.2407143 L138.123357,17.2407143 Z" id="Fill-6" fill="#FFFFFF" mask="url(#mask-4)"></path>
                </g>
            </g>
        </g>
    </g>
</svg>