<?xml version="1.0" encoding="UTF-8"?>
<svg width="74px" height="58px" viewBox="0 0 74 58" version="1.1" xmlns="http://www.w3.org/2000/svg" xmlns:xlink="http://www.w3.org/1999/xlink">
    
    <g id="APP---INCIDENCIAS" stroke="none" stroke-width="1" fill="none" fill-rule="evenodd">
        <g id="Group-12" fill="#AAAAAA" fill-rule="nonzero">
            <path d="M63.2997186,4.21998124 L25.3198874,4.21998124 C25.3198874,1.89318908 23.4266983,0 21.0999062,0 L15.4732645,0 C13.1464724,0 11.2532833,1.89318908 11.2532833,4.21998124 L9.84662289,4.21998124 C4.41708953,4.21998124 0,8.6372466 0,14.0666041 L0,47.826454 C0,53.2558116 4.41708953,57.6730769 9.84662289,57.6730769 L63.2997186,57.6730769 C68.7292519,57.6730769 73.1463415,53.2558116 73.1463415,47.826454 L73.1463415,14.0666041 C73.1463415,8.6372466 68.7292519,4.21998124 63.2997186,4.21998124 Z M15.4732645,2.81332083 L21.0999062,2.81332083 C21.8755036,2.81332083 22.5065666,3.44438385 22.5065666,4.21998124 L14.0666041,4.21998124 C14.0666041,3.44438385 14.6976672,2.81332083 15.4732645,2.81332083 Z M63.2997186,54.8597561 L9.84662289,54.8597561 C5.96846013,54.8597561 2.81332083,51.7046168 2.81332083,47.826454 L2.81332083,21.0999062 L14.0666041,21.0999062 C14.8434323,21.0999062 15.4732645,20.470074 15.4732645,19.6932458 C15.4732645,18.9164176 14.8434323,18.2865854 14.0666041,18.2865854 L2.81332083,18.2865854 L2.81332083,14.0666041 C2.81332083,10.1884414 5.96846013,7.03330206 9.84662289,7.03330206 L63.2997186,7.03330206 C67.1778813,7.03330206 70.3330206,10.1884414 70.3330206,14.0666041 L70.3330206,18.2865854 L59.0797373,18.2865854 C58.3029091,18.2865854 57.6730769,18.9164176 57.6730769,19.6932458 C57.6730769,20.470074 58.3029091,21.0999062 59.0797373,21.0999062 L70.3330206,21.0999062 L70.3330206,47.826454 C70.3330206,51.7046168 67.1778813,54.8597561 63.2997186,54.8597561 Z" id="Shape"></path>
            <path d="M36.5731707,9.84662289 C24.9386825,9.84662289 15.4732645,19.3120408 15.4732645,30.9465291 C15.4732645,42.5810174 24.9386825,52.0464353 36.5731707,52.0464353 C48.207659,52.0464353 57.6730769,42.5810174 57.6730769,30.9465291 C57.6730769,19.3120408 48.207659,9.84662289 36.5731707,9.84662289 Z M36.5731707,49.2331144 C26.4898772,49.2331144 18.2865854,41.0298226 18.2865854,30.9465291 C18.2865854,20.8632356 26.4898772,12.6599437 36.5731707,12.6599437 C46.6564642,12.6599437 54.8597561,20.8632356 54.8597561,30.9465291 C54.8597561,41.0298226 46.6564642,49.2331144 36.5731707,49.2331144 Z" id="Shape"></path>
            <path d="M36.5731707,15.4732645 C28.0412478,15.4732645 21.0999062,22.4146062 21.0999062,30.9465291 C21.0999062,39.478452 28.0412478,46.4197936 36.5731707,46.4197936 C45.1050936,46.4197936 52.0464353,39.478452 52.0464353,30.9465291 C52.0464353,22.4146062 45.1050936,15.4732645 36.5731707,15.4732645 Z M36.5731707,43.6064728 C29.5924426,43.6064728 23.913227,37.9272572 23.913227,30.9465291 C23.913227,23.9658009 29.5924426,18.2865854 36.5731707,18.2865854 C43.5538989,18.2865854 49.2331144,23.9658009 49.2331144,30.9465291 C49.2331144,37.9272572 43.5538989,43.6064728 36.5731707,43.6064728 Z" id="Shape"></path>
            <path d="M36.5731707,21.0999062 C35.7963425,21.0999062 35.1665103,21.7297384 35.1665103,22.5065666 C35.1665103,23.2833948 35.7963425,23.913227 36.5731707,23.913227 C40.4513335,23.913227 43.6064728,27.0683663 43.6064728,30.9465291 C43.6064728,31.7233573 44.236305,32.3531895 45.0131332,32.3531895 C45.7899614,32.3531895 46.4197936,31.7233573 46.4197936,30.9465291 C46.4197936,25.5171716 42.0027041,21.0999062 36.5731707,21.0999062 Z" id="Shape"></path>
            <path d="M61.8930582,16.879925 C64.2198503,16.879925 66.1130394,14.9869117 66.1130394,12.6599437 C66.1130394,10.3329757 64.2198503,8.43996248 61.8930582,8.43996248 C59.566266,8.43996248 57.6730769,10.3329757 57.6730769,12.6599437 C57.6730769,14.9869117 59.566266,16.879925 61.8930582,16.879925 Z M61.8930582,11.2532833 C62.6686555,11.2532833 63.2997186,11.8843463 63.2997186,12.6599437 C63.2997186,13.4355411 62.6686555,14.0666041 61.8930582,14.0666041 C61.1174608,14.0666041 60.4863977,13.4355411 60.4863977,12.6599437 C60.4863977,11.8843463 61.1174608,11.2532833 61.8930582,11.2532833 Z" id="Shape"></path>
        </g>
    </g>
</svg>