<?xml version="1.0" encoding="UTF-8"?>
<svg width="14px" height="14px" viewBox="0 0 14 14" version="1.1" xmlns="http://www.w3.org/2000/svg" xmlns:xlink="http://www.w3.org/1999/xlink">
    
    <g id="Symbols" stroke="none" stroke-width="1" fill="none" fill-rule="evenodd">
        <g id="like" transform="translate(0.496454, 0.500000)" fill="#B8B8B8" fill-rule="nonzero">
            <g id="Group-6">
                <path d="M9.21576755,0.000241758242 C11.1975483,0.000241758242 12.7581146,1.67909398 12.9500903,3.90991567 L12.9500903,3.90991567 L12.9664431,4.0460678 C12.9968536,4.38198376 12.9708167,4.84475661 12.8416255,5.41891475 C12.5716677,6.62031425 11.9483918,7.71237546 11.0380669,8.57869182 L11.0380669,8.57869182 L6.79555517,12.5527138 C6.60206801,12.733956 6.30075439,12.7326712 6.10881984,12.5497856 L6.10881984,12.5497856 L1.93819246,8.57578651 C1.03085956,7.71255832 0.407467699,6.62029395 0.137480085,5.41902435 C-0.0102968884,4.7620589 -0.0232214016,4.2483095 0.0253791215,3.94189835 L0.0253791215,3.94189835 L0.0485329131,3.72476884 C0.322054088,1.57243606 1.84556471,0 3.76331334,0 C4.77236374,0 5.70073448,0.438504088 6.37816349,1.19873246 L6.37816349,1.19873246 L6.46154576,1.298 L6.54647054,1.20063766 C7.1898001,0.498320753 8.06059036,0.0652714314 8.99826651,0.00699049219 L8.99826651,0.00699049219 Z" id="Combined-Shape"></path>
            </g>
        </g>
    </g>
</svg>