<?xml version="1.0" encoding="UTF-8"?>
<svg width="14px" height="14px" viewBox="0 0 14 14" version="1.1" xmlns="http://www.w3.org/2000/svg" xmlns:xlink="http://www.w3.org/1999/xlink">
    
    <g id="Symbols" stroke="none" stroke-width="1" fill="none" fill-rule="evenodd">
        <g id="like" transform="translate(0.496454, 0.500000)" fill="#B8B8B8" fill-rule="nonzero">
            <path d="M3.76331334,0 C1.84556471,0 0.322054088,1.57243606 0.0485329131,3.72476884 L0.0253791215,3.94189835 C-0.0232214016,4.2483095 -0.0102968884,4.7620589 0.137480085,5.41902435 C0.407467699,6.62029395 1.03085956,7.71255832 1.93819246,8.57578651 L6.10881984,12.5497856 C6.30075439,12.7326712 6.60206801,12.733956 6.79555517,12.5527138 L11.0380669,8.57869182 C11.9483918,7.71237546 12.5716677,6.62031425 12.8416255,5.41891475 C12.9708167,4.84475661 12.9968536,4.38198376 12.9664431,4.0460678 L12.9500903,3.90991567 C12.7581146,1.67909398 11.1975483,0.000241758242 9.21576755,0.000241758242 L8.99826651,0.00699049219 C8.06059036,0.0652714314 7.1898001,0.498320753 6.54647054,1.20063766 L6.46154576,1.298 L6.37816349,1.19873246 C5.70073448,0.438504088 4.77236374,0 3.76331334,0 Z M9.21576755,1.00024176 C10.5861968,1.00024176 11.7140463,2.15687477 11.9354721,3.82562317 L11.9576498,4.02828989 C11.9953143,4.2826019 11.9855656,4.66809285 11.8659857,5.19953607 L11.7969271,5.47198363 C11.5424836,6.37213827 11.0469328,7.18980697 10.3515545,7.85158448 L6.45654576,11.499 L2.62774928,7.85155502 C1.86274187,7.1237338 1.33952043,6.20698114 1.11312215,5.19965581 C1.00845545,4.73434372 0.987906178,4.37940901 1.00710219,4.15137407 L1.01763307,4.06146235 C1.17521262,2.25112739 2.33818999,1 3.76331334,1 C4.68758987,1 5.52281441,1.52013913 6.01960962,2.41274216 C6.20918707,2.75336019 6.69832641,2.75565435 6.89109058,2.41682958 C7.39279829,1.53496966 8.27183662,1.00024176 9.21576755,1.00024176 Z" id="Shape-Copy"></path>
        </g>
    </g>
</svg>