<?xml version="1.0" encoding="UTF-8"?>
<svg width="133px" height="133px" viewBox="0 0 133 133" version="1.1" xmlns="http://www.w3.org/2000/svg" xmlns:xlink="http://www.w3.org/1999/xlink">
    <title>Group 9</title>
    <defs>
        <polygon id="path-1" points="0 0.0273333333 132.972108 0.0273333333 132.972108 132.997767 0 132.997767"></polygon>
    </defs>
    <g id="extras" stroke="none" stroke-width="1" fill="none" fill-rule="evenodd">
        <g id="Iconos" transform="translate(-23.000000, -24.000000)">
            <g id="Group-3" transform="translate(23.000000, 24.000000)">
                <mask id="mask-2" fill="white">
                    <use xlink:href="#path-1"></use>
                </mask>
                <g id="Clip-2"></g>
                <path d="M-0.000558333333,0.0251 L87.590775,0.0251 C86.3959417,2.39801667 86.4126917,5.58051667 87.188775,8.08743333 C88.1714417,11.23085 89.064775,13.24085 90.1479417,16.12185 L98.478275,17.9531833 L94.140025,6.93726667 C93.654275,4.53643333 94.3466083,2.28635 95.5861083,1.22551667 C96.1946917,0.616933333 96.9093583,0.220516667 97.7189417,0.0251 L100.304025,0.0251 L100.560858,0.07535 C102.291692,0.57785 103.637275,1.75593333 104.491525,3.59843333 C103.592608,5.63076667 103.279942,7.60726667 103.564692,9.78476667 L105.139192,19.3825167 L112.654358,20.9849333 L110.594108,9.49443333 C109.806858,1.18085 121.548608,2.36451667 121.459275,8.8356 L118.561525,22.2691 L125.976192,23.8659333 L128.879525,10.4212667 C129.666775,8.6011 131.263608,7.70776667 132.972108,7.52351667 L132.972108,23.55885 L131.900108,25.1277667 L132.972108,25.3566833 L132.972108,28.7234333 C131.715858,29.0416833 130.682942,30.0411 130.392608,31.3922667 C129.990608,33.2515167 131.140775,35.0884333 132.972108,35.55185 L132.972108,37.8912667 L92.414775,29.15335 L90.890525,36.1827667 L132.972108,45.2445167 L132.972108,49.3091833 L78.8919417,37.6567667 L67.1836917,91.9770167 C63.5433583,108.844267 72.8061083,125.571933 88.595775,132.997767 L-0.000558333333,132.997767 L-0.000558333333,0.0251 Z M94.4973583,20.0971833 C96.401275,20.4991833 97.6184417,22.3751833 97.2108583,24.2735167 C96.7976917,26.1774333 94.927275,27.3890167 93.0289417,26.97585 C91.1306083,26.5682667 89.9134417,24.6922667 90.3266083,22.78835 C90.7286083,20.8900167 92.6046083,19.6840167 94.4973583,20.0971833 L94.4973583,20.0971833 Z M107.869442,22.9391 C109.767775,23.3466833 110.979358,25.2115167 110.577358,27.1266 C110.158608,29.0249333 108.293775,30.2365167 106.384275,29.8177667 C104.491525,29.4101833 103.279942,27.5341833 103.681942,25.63585 C104.095108,23.7319333 105.971108,22.5371 107.869442,22.9391 L107.869442,22.9391 Z M121.448108,25.8591833 C123.352025,26.2667667 124.558025,28.1427667 124.139275,30.0522667 C123.748442,31.9561833 121.866858,33.1566 119.957358,32.7490167 C118.064608,32.33585 116.853025,30.45985 117.260608,28.5615167 C117.673775,26.6576 119.544192,25.4571833 121.448108,25.8591833 L121.448108,25.8591833 Z M125.077275,0.0251 L132.972108,0.0251 L132.972108,0.0976833333 C131.001192,0.270766667 128.924192,0.8626 126.824858,1.91226667 C126.260942,1.21435 125.680275,0.5946 125.077275,0.0251 L125.077275,0.0251 Z M132.972108,56.5842667 L132.972108,57.5501833 L132.838108,57.3547667 L131.838692,57.99685 L131.191025,56.9974333 L129.929192,57.8237667 L130.565692,58.8231833 L129.566275,59.4652667 L130.392608,60.7382667 L131.380858,60.0961833 L132.034108,61.0900167 L132.972108,60.4870167 L132.972108,62.0615167 L121.917108,59.6886 L113.966442,96.5665167 C112.135108,105.069933 114.988192,113.87485 121.280608,119.028267 C125.518358,117.548683 130.074358,112.071433 132.290942,101.770183 L132.972108,98.6044333 L132.972108,102.3006 L132.692942,102.490433 L132.972108,102.925933 L132.972108,115.008267 C130.191608,120.077933 126.383775,123.394433 121.749608,125.343017 C111.738692,118.659767 106.300525,105.83485 108.416608,96.08635 L117.629108,53.2677667 L132.972108,56.5842667 Z M132.972108,126.141433 L132.972108,132.997767 L122.598275,132.997767 C126.439608,131.233433 129.962692,128.910767 132.972108,126.141433 L132.972108,126.141433 Z M132.972108,64.2725167 L132.972108,65.0095167 L131.246858,73.0160167 L126.367025,71.96635 L128.243025,63.25635 L132.972108,64.2725167 Z M132.972108,73.3845167 L132.972108,82.6640167 L129.337358,81.8879333 L131.246858,73.0160167 L132.972108,73.3845167 Z M118.583858,56.2436833 L117.941775,55.2442667 L119.203608,54.4235167 L119.856858,55.4285167 L120.856275,54.78085 L121.682608,56.05385 L120.677608,56.69035 L121.325275,57.6897667 L120.041108,58.5272667 L119.404608,57.5222667 L118.399608,58.1587667 L117.590025,56.8969333 L118.583858,56.2436833 Z M132.972108,59.06885 L132.972108,59.7500167 L132.642692,59.2642667 L132.972108,59.06885 Z M110.113942,96.7284333 L109.471858,95.71785 L110.739275,94.8971 L111.386942,95.9021 L112.391942,95.2600167 L113.212692,96.52185 L112.213275,97.1751 L112.855358,98.1689333 L111.582358,99.00085 L110.929108,97.99585 L109.929692,98.6491 L109.103358,97.3761 L110.113942,96.7284333 Z M119.795442,121.082933 L119.142192,120.066767 L120.415192,119.2516 L121.068442,120.251017 L122.067858,119.597767 L122.894192,120.87635 L121.883608,121.518433 L122.531275,122.51785 L121.269442,123.3386 L120.616192,122.344767 L119.611192,122.975683 L118.801608,121.71385 L119.795442,121.082933 Z M114.039025,77.2202667 L113.391358,76.2152667 L114.675525,75.3889333 L115.323192,76.4051 L116.317025,75.7574333 L117.132192,77.02485 L116.138358,77.6669333 L116.769275,78.6719333 L115.507442,79.4871 L114.859775,78.49885 L113.871525,79.1409333 L113.039608,77.86235 L114.039025,77.2202667 Z M124.457525,80.8326833 L126.367025,71.96635 L121.570942,70.92785 L119.661442,79.7941833 L124.457525,80.8326833 Z M123.742858,107.8616 L121.933858,116.21985 C123.971775,115.08085 126.087858,112.640933 127.852192,108.74935 L123.742858,107.8616 Z M118.851858,106.817517 L115.959692,106.197767 C116.328192,108.17985 116.942358,110.05585 117.796608,111.758767 L118.851858,106.817517 Z M120.744608,98.0796 L122.626192,89.2802667 L117.835692,88.24735 L116.127192,96.1980167 C116.071358,96.4771833 116.009942,96.7731 115.959692,97.05785 L120.744608,98.0796 Z M125.613275,99.1292667 L120.744608,98.0796 L118.851858,106.817517 L123.742858,107.8616 L125.613275,99.1292667 Z M127.517192,90.3411 L125.613275,99.1292667 L130.554525,100.195683 L132.447275,91.39635 L127.517192,90.3411 Z M122.626192,89.2802667 L127.517192,90.3411 L129.337358,81.8879333 L124.457525,80.8326833 L122.626192,89.2802667 Z M103.458608,107.4931 C98.1041917,115.103183 91.3483583,118.788183 83.1576083,121.14435 C92.649275,130.613683 103.977858,133.042433 116.557108,128.441767 C110.359608,122.891933 105.630525,116.9066 103.458608,107.4931 L103.458608,107.4931 Z M97.9199417,116.666517 C97.0433583,116.476683 94.692775,116.99035 94.5643583,117.582183 L93.1406083,124.231933 C93.0121917,124.790267 95.1059417,126.1861 95.8708583,126.1861 L97.9199417,116.666517 Z M100.828858,116.577183 C101.884108,116.8061 101.325775,116.68885 102.375442,116.9066 C103.458608,117.146683 104.011358,117.917183 103.910858,118.375017 L102.029275,127.112933 C101.895275,127.766183 100.974025,128.006267 100.209108,127.84435 C99.165025,127.615433 99.1761917,127.615433 98.4503583,127.4591 C97.7189417,127.30835 96.836775,126.565767 96.954025,126.0186 L98.8411917,117.297433 C98.9361083,116.817267 99.8573583,116.359433 100.828858,116.577183 L100.828858,116.577183 Z M104.949358,118.157267 C105.837108,118.352683 107.774525,119.793183 107.640525,120.385017 L106.200025,127.045933 C106.082775,127.604267 103.592608,128.0286 102.900275,127.699183 L104.949358,118.157267 Z M84.4641083,46.1266833 L112.944692,52.2571833 L103.715442,95.08135 C101.621692,104.824267 91.4544417,114.299183 79.6791917,116.2701 C74.4308583,110.547183 72.2868583,102.61885 74.693275,91.4745167 L84.4641083,46.1266833 Z M95.5079417,64.4902667 C96.1556083,64.6410167 96.5743583,65.2831 96.4291917,65.9140167 C96.300775,66.5616833 95.6586917,66.9804333 95.027775,66.8296833 C94.3689417,66.6956833 93.955775,66.0536 94.1009417,65.4115167 C94.2349417,64.76385 94.8714417,64.36185 95.5079417,64.4902667 L95.5079417,64.4902667 Z M105.105692,78.9566833 C105.747775,79.0962667 106.160942,79.7271833 106.021358,80.37485 C105.887358,81.0281 105.245275,81.4301 104.619942,81.2905167 C103.961108,81.14535 103.553525,80.5144333 103.693108,79.8835167 C103.832692,79.2302667 104.463608,78.8115167 105.105692,78.9566833 L105.105692,78.9566833 Z M90.4103583,88.1915167 C91.0524417,88.3199333 91.4711917,88.9564333 91.3316083,89.5985167 C91.192025,90.2517667 90.5611083,90.6537667 89.9134417,90.52535 C89.265775,90.3857667 88.863775,89.7381 88.9921917,89.1071833 C89.1373583,88.4539333 89.768275,88.0407667 90.4103583,88.1915167 L90.4103583,88.1915167 Z M80.874025,73.7362667 C81.5161083,73.8814333 81.9236917,74.5179333 81.7841083,75.14885 C81.644525,75.7909333 81.0136083,76.2096833 80.371525,76.0645167 C79.718275,75.9361 79.3106917,75.2884333 79.4558583,74.64635 C79.5898583,74.0042667 80.2263583,73.6022667 80.874025,73.7362667 L80.874025,73.7362667 Z M82.850525,75.9249333 C81.3988583,73.3175167 83.018025,68.0747667 86.8984417,69.3086833 C88.461775,65.8972667 92.4706083,65.7409333 94.6536917,68.5102667 C97.8361917,66.9525167 101.895275,69.0686 101.180608,72.3906833 C105.418358,73.1667667 104.541775,78.2811 102.453608,80.1459333 C103.581442,82.7086833 102.286108,87.7336833 98.0986083,86.6840167 C97.3783583,90.02285 92.8223583,90.2741 90.5611083,87.5494333 C87.423275,89.1630167 83.8276083,87.3819333 83.8164417,83.62435 C79.768525,83.1665167 80.4608583,77.7116 82.850525,75.9249333 L82.850525,75.9249333 Z M100.108608,78.0521833 C101.789192,76.6786833 100.773025,74.3616 97.1773583,75.6290167 C96.6916083,75.7909333 96.3231083,75.5006 96.7586083,74.9869333 C98.9193583,72.4130167 97.5626083,69.9675167 94.475025,71.8770167 C94.140025,72.0891833 93.520275,71.96635 93.3081083,71.63135 C91.2981083,68.61635 89.048025,70.2857667 89.9469417,73.5241 C90.136775,74.1661833 89.6733583,74.2834333 89.3104417,73.9261 C86.535525,71.3019333 84.642775,73.0662667 85.631025,74.9311 C86.049775,75.75185 85.6868583,77.5161833 84.977775,77.9851833 C83.286025,79.2079333 84.307775,81.6590167 87.909025,80.4027667 C88.394775,80.2296833 88.7521083,80.5367667 88.327775,81.0504333 C86.1614417,83.6131833 87.5293583,86.0531 90.6113583,84.1436 C90.9519417,83.9481833 91.560525,84.05985 91.7726917,84.39485 C93.7826917,87.4042667 96.0383583,85.7516 95.128275,82.5076833 C94.944025,81.8656 95.413025,81.74835 95.781525,82.0945167 C98.545275,84.7354333 100.644608,82.7589333 99.4553583,81.1006833 C98.9584417,80.4251 99.3548583,78.5602667 100.108608,78.0521833 L100.108608,78.0521833 Z M90.8514417,78.7277667 L87.674525,78.0521833 L88.3389417,74.9757667 L91.510275,75.65135 L92.1858583,72.5246833 L95.212025,73.1835167 L94.525275,76.3046 L97.6854417,76.9690167 L97.0154417,80.0566 L93.8664417,79.3810167 L93.1908583,82.51885 L90.1646917,81.8656 L90.8514417,78.7277667 Z" id="Fill-1" fill="#FFFFFF" mask="url(#mask-2)"></path>
            </g>
        </g>
    </g>
</svg>