<?xml version="1.0" encoding="UTF-8"?>
<svg width="229px" height="105px" viewBox="0 0 229 105" version="1.1" xmlns="http://www.w3.org/2000/svg" xmlns:xlink="http://www.w3.org/1999/xlink">
    
    <g id="Login" stroke="none" stroke-width="1" fill="none" fill-rule="evenodd">
        <g id="Acceder" transform="translate(-71.000000, -80.000000)">
            <g id="Group" transform="translate(70.999733, 80.500000)">
                <g id="Group-9" transform="translate(1.000267, 19.500000)">
                    <g id="Group-3">
                        
                        <g id="Clip-2"></g>
                        <path d="M-0.000266666667,0.4896 L41.8344,0.4896 C41.2637333,1.62293333 41.2717333,3.14293333 41.6424,4.34026667 C42.1117333,5.8416 42.5384,6.8016 43.0557333,8.1776 L47.0344,9.05226667 L44.9624,3.79093333 C44.7304,2.64426667 45.0610667,1.5696 45.6530667,1.06293333 C45.9437333,0.772266667 46.2850667,0.582933333 46.6717333,0.4896 L47.9064,0.4896 L48.0290667,0.5136 C48.8557333,0.7536 49.4984,1.31626667 49.9064,2.19626667 C49.4770667,3.16693333 49.3277333,4.11093333 49.4637333,5.15093333 L50.2157333,9.73493333 L53.8050667,10.5002667 L52.8210667,5.01226667 C52.4450667,1.0416 58.0530667,1.60693333 58.0104,4.6976 L56.6264,11.1136 L60.1677333,11.8762667 L61.5544,5.45493333 C61.9304,4.5856 62.6930667,4.15893333 63.5090667,4.07093333 L63.5090667,11.7296 L62.9970667,12.4789333 L63.5090667,12.5882667 L63.5090667,14.1962667 C62.9090667,14.3482667 62.4157333,14.8256 62.2770667,15.4709333 C62.0850667,16.3589333 62.6344,17.2362667 63.5090667,17.4576 L63.5090667,18.5749333 L44.1384,14.4016 L43.4104,17.7589333 L63.5090667,22.0869333 L63.5090667,24.0282667 L37.6797333,18.4629333 L32.0877333,44.4069333 C30.3490667,52.4629333 34.7730667,60.4522667 42.3144,63.9989333 L-0.000266666667,63.9989333 L-0.000266666667,0.4896 Z M45.1330667,10.0762667 C46.0424,10.2682667 46.6237333,11.1642667 46.4290667,12.0709333 C46.2317333,12.9802667 45.3384,13.5589333 44.4317333,13.3616 C43.5250667,13.1669333 42.9437333,12.2709333 43.1410667,11.3616 C43.3330667,10.4549333 44.2290667,9.87893333 45.1330667,10.0762667 L45.1330667,10.0762667 Z M51.5197333,11.4336 C52.4264,11.6282667 53.0050667,12.5189333 52.8130667,13.4336 C52.6130667,14.3402667 51.7224,14.9189333 50.8104,14.7189333 C49.9064,14.5242667 49.3277333,13.6282667 49.5197333,12.7216 C49.7170667,11.8122667 50.6130667,11.2416 51.5197333,11.4336 L51.5197333,11.4336 Z M58.0050667,12.8282667 C58.9144,13.0229333 59.4904,13.9189333 59.2904,14.8309333 C59.1037333,15.7402667 58.2050667,16.3136 57.2930667,16.1189333 C56.3890667,15.9216 55.8104,15.0256 56.0050667,14.1189333 C56.2024,13.2096 57.0957333,12.6362667 58.0050667,12.8282667 L58.0050667,12.8282667 Z M59.7384,0.4896 L63.5090667,0.4896 L63.5090667,0.524266667 C62.5677333,0.606933333 61.5757333,0.8896 60.5730667,1.39093333 C60.3037333,1.0576 60.0264,0.7616 59.7384,0.4896 L59.7384,0.4896 Z M63.5090667,27.5029333 L63.5090667,27.9642667 L63.4450667,27.8709333 L62.9677333,28.1776 L62.6584,27.7002667 L62.0557333,28.0949333 L62.3597333,28.5722667 L61.8824,28.8789333 L62.2770667,29.4869333 L62.7490667,29.1802667 L63.0610667,29.6549333 L63.5090667,29.3669333 L63.5090667,30.1189333 L58.2290667,28.9856 L54.4317333,46.5989333 C53.5570667,50.6602667 54.9197333,54.8656 57.9250667,57.3269333 C59.9490667,56.6202667 62.1250667,54.0042667 63.1837333,49.0842667 L63.5090667,47.5722667 L63.5090667,49.3376 L63.3757333,49.4282667 L63.5090667,49.6362667 L63.5090667,55.4069333 C62.1810667,57.8282667 60.3624,59.4122667 58.1490667,60.3429333 C53.3677333,57.1509333 50.7704,51.0256 51.7810667,46.3696 L56.1810667,25.9189333 L63.5090667,27.5029333 Z M63.5090667,60.7242667 L63.5090667,63.9989333 L58.5544,63.9989333 C60.3890667,63.1562667 62.0717333,62.0469333 63.5090667,60.7242667 L63.5090667,60.7242667 Z M63.5090667,31.1749333 L63.5090667,31.5269333 L62.6850667,35.3509333 L60.3544,34.8496 L61.2504,30.6896 L63.5090667,31.1749333 Z M63.5090667,35.5269333 L63.5090667,39.9589333 L61.7730667,39.5882667 L62.6850667,35.3509333 L63.5090667,35.5269333 Z M56.6370667,27.3402667 L56.3304,26.8629333 L56.9330667,26.4709333 L57.2450667,26.9509333 L57.7224,26.6416 L58.1170667,27.2496 L57.6370667,27.5536 L57.9464,28.0309333 L57.3330667,28.4309333 L57.0290667,27.9509333 L56.5490667,28.2549333 L56.1624,27.6522667 L56.6370667,27.3402667 Z M63.5090667,28.6896 L63.5090667,29.0149333 L63.3517333,28.7829333 L63.5090667,28.6896 Z M52.5917333,46.6762667 L52.2850667,46.1936 L52.8904,45.8016 L53.1997333,46.2816 L53.6797333,45.9749333 L54.0717333,46.5776 L53.5944,46.8896 L53.9010667,47.3642667 L53.2930667,47.7616 L52.9810667,47.2816 L52.5037333,47.5936 L52.1090667,46.9856 L52.5917333,46.6762667 Z M57.2157333,58.3082667 L56.9037333,57.8229333 L57.5117333,57.4336 L57.8237333,57.9109333 L58.3010667,57.5989333 L58.6957333,58.2096 L58.2130667,58.5162667 L58.5224,58.9936 L57.9197333,59.3856 L57.6077333,58.9109333 L57.1277333,59.2122667 L56.7410667,58.6096 L57.2157333,58.3082667 Z M54.4664,37.3589333 L54.1570667,36.8789333 L54.7704,36.4842667 L55.0797333,36.9696 L55.5544,36.6602667 L55.9437333,37.2656 L55.4690667,37.5722667 L55.7704,38.0522667 L55.1677333,38.4416 L54.8584,37.9696 L54.3864,38.2762667 L53.9890667,37.6656 L54.4664,37.3589333 Z M59.4424,39.0842667 L60.3544,34.8496 L58.0637333,34.3536 L57.1517333,38.5882667 L59.4424,39.0842667 Z M59.1010667,51.9936 L58.2370667,55.9856 C59.2104,55.4416 60.2210667,54.2762667 61.0637333,52.4176 L59.1010667,51.9936 Z M56.7650667,51.4949333 L55.3837333,51.1989333 C55.5597333,52.1456 55.8530667,53.0416 56.2610667,53.8549333 L56.7650667,51.4949333 Z M57.6690667,47.3216 L58.5677333,43.1189333 L56.2797333,42.6256 L55.4637333,46.4229333 C55.4370667,46.5562667 55.4077333,46.6976 55.3837333,46.8336 L57.6690667,47.3216 Z M59.9944,47.8229333 L57.6690667,47.3216 L56.7650667,51.4949333 L59.1010667,51.9936 L59.9944,47.8229333 Z M60.9037333,43.6256 L59.9944,47.8229333 L62.3544,48.3322667 L63.2584,44.1296 L60.9037333,43.6256 Z M58.5677333,43.1189333 L60.9037333,43.6256 L61.7730667,39.5882667 L59.4424,39.0842667 L58.5677333,43.1189333 Z M49.4130667,51.8176 C46.8557333,55.4522667 43.6290667,57.2122667 39.7170667,58.3376 C44.2504,62.8602667 49.6610667,64.0202667 55.6690667,61.8229333 C52.7090667,59.1722667 50.4504,56.3136 49.4130667,51.8176 L49.4130667,51.8176 Z M46.7677333,56.1989333 C46.3490667,56.1082667 45.2264,56.3536 45.1650667,56.6362667 L44.4850667,59.8122667 C44.4237333,60.0789333 45.4237333,60.7456 45.7890667,60.7456 L46.7677333,56.1989333 Z M48.1570667,56.1562667 C48.6610667,56.2656 48.3944,56.2096 48.8957333,56.3136 C49.4130667,56.4282667 49.6770667,56.7962667 49.6290667,57.0149333 L48.7304,61.1882667 C48.6664,61.5002667 48.2264,61.6149333 47.8610667,61.5376 C47.3624,61.4282667 47.3677333,61.4282667 47.0210667,61.3536 C46.6717333,61.2816 46.2504,60.9269333 46.3064,60.6656 L47.2077333,56.5002667 C47.2530667,56.2709333 47.6930667,56.0522667 48.1570667,56.1562667 L48.1570667,56.1562667 Z M50.1250667,56.9109333 C50.5490667,57.0042667 51.4744,57.6922667 51.4104,57.9749333 L50.7224,61.1562667 C50.6664,61.4229333 49.4770667,61.6256 49.1464,61.4682667 L50.1250667,56.9109333 Z M40.3410667,22.5082667 L53.9437333,25.4362667 L49.5357333,45.8896 C48.5357333,50.5429333 43.6797333,55.0682667 38.0557333,56.0096 C35.5490667,53.2762667 34.5250667,49.4896 35.6744,44.1669333 L40.3410667,22.5082667 Z M45.6157333,31.2789333 C45.9250667,31.3509333 46.1250667,31.6576 46.0557333,31.9589333 C45.9944,32.2682667 45.6877333,32.4682667 45.3864,32.3962667 C45.0717333,32.3322667 44.8744,32.0256 44.9437333,31.7189333 C45.0077333,31.4096 45.3117333,31.2176 45.6157333,31.2789333 L45.6157333,31.2789333 Z M50.1997333,38.1882667 C50.5064,38.2549333 50.7037333,38.5562667 50.6370667,38.8656 C50.5730667,39.1776 50.2664,39.3696 49.9677333,39.3029333 C49.6530667,39.2336 49.4584,38.9322667 49.5250667,38.6309333 C49.5917333,38.3189333 49.8930667,38.1189333 50.1997333,38.1882667 L50.1997333,38.1882667 Z M43.1810667,42.5989333 C43.4877333,42.6602667 43.6877333,42.9642667 43.6210667,43.2709333 C43.5544,43.5829333 43.2530667,43.7749333 42.9437333,43.7136 C42.6344,43.6469333 42.4424,43.3376 42.5037333,43.0362667 C42.5730667,42.7242667 42.8744,42.5269333 43.1810667,42.5989333 L43.1810667,42.5989333 Z M38.6264,35.6949333 C38.9330667,35.7642667 39.1277333,36.0682667 39.0610667,36.3696 C38.9944,36.6762667 38.6930667,36.8762667 38.3864,36.8069333 C38.0744,36.7456 37.8797333,36.4362667 37.9490667,36.1296 C38.0130667,35.8229333 38.3170667,35.6309333 38.6264,35.6949333 L38.6264,35.6949333 Z M39.5704,36.7402667 C38.8770667,35.4949333 39.6504,32.9909333 41.5037333,33.5802667 C42.2504,31.9509333 44.1650667,31.8762667 45.2077333,33.1989333 C46.7277333,32.4549333 48.6664,33.4656 48.3250667,35.0522667 C50.3490667,35.4229333 49.9304,37.8656 48.9330667,38.7562667 C49.4717333,39.9802667 48.8530667,42.3802667 46.8530667,41.8789333 C46.5090667,43.4736 44.3330667,43.5936 43.2530667,42.2922667 C41.7544,43.0629333 40.0370667,42.2122667 40.0317333,40.4176 C38.0984,40.1989333 38.4290667,37.5936 39.5704,36.7402667 L39.5704,36.7402667 Z M47.8130667,37.7562667 C48.6157333,37.1002667 48.1304,35.9936 46.4130667,36.5989333 C46.1810667,36.6762667 46.0050667,36.5376 46.2130667,36.2922667 C47.2450667,35.0629333 46.5970667,33.8949333 45.1224,34.8069333 C44.9624,34.9082667 44.6664,34.8496 44.5650667,34.6896 C43.6050667,33.2496 42.5304,34.0469333 42.9597333,35.5936 C43.0504,35.9002667 42.8290667,35.9562667 42.6557333,35.7856 C41.3304,34.5322667 40.4264,35.3749333 40.8984,36.2656 C41.0984,36.6576 40.9250667,37.5002667 40.5864,37.7242667 C39.7784,38.3082667 40.2664,39.4789333 41.9864,38.8789333 C42.2184,38.7962667 42.3890667,38.9429333 42.1864,39.1882667 C41.1517333,40.4122667 41.8050667,41.5776 43.2770667,40.6656 C43.4397333,40.5722667 43.7304,40.6256 43.8317333,40.7856 C44.7917333,42.2229333 45.8690667,41.4336 45.4344,39.8842667 C45.3464,39.5776 45.5704,39.5216 45.7464,39.6869333 C47.0664,40.9482667 48.0690667,40.0042667 47.5010667,39.2122667 C47.2637333,38.8896 47.4530667,37.9989333 47.8130667,37.7562667 L47.8130667,37.7562667 Z M43.3917333,38.0789333 L41.8744,37.7562667 L42.1917333,36.2869333 L43.7064,36.6096 L44.0290667,35.1162667 L45.4744,35.4309333 L45.1464,36.9216 L46.6557333,37.2389333 L46.3357333,38.7136 L44.8317333,38.3909333 L44.5090667,39.8896 L43.0637333,39.5776 L43.3917333,38.0789333 Z" id="Fill-1" fill="white" mask="url(#mask-2)"></path>
                    </g>
                    <path d="M82.2869855,19.4874101 L86.7410114,19.4874101 L84.6290964,12.0656475 L84.4096072,12.0656475 L82.2869855,19.4874101 Z M79,25.2365108 L83.3630182,11 L85.7345728,11 L90.0788541,25.2365108 L88.4353614,25.2365108 L87.1692831,20.8039568 L81.909571,20.8039568 L80.6622296,25.2365108 L79,25.2365108 Z M94.6640382,25.0665468 L90.9809014,14.9415468 L92.4289952,14.9415468 L95.3974535,23.169964 L98.0607683,14.9415468 L99.4981552,14.9415468 L96.0077407,25.4145683 C95.5312884,26.8255396 95.0253925,27.7751799 94.4900528,28.2634892 C93.9493598,28.7544964 93.2186211,29 92.2951602,29 C92.137235,29 91.9819865,28.9919065 91.8294147,28.9703237 C91.6795196,28.9514388 91.5323012,28.9244604 91.3904362,28.8866906 L91.401143,27.567446 C91.5483614,27.602518 91.6875497,27.6267986 91.8240613,27.6375899 C91.960573,27.6564748 92.0863778,27.6618705 92.1934457,27.6618705 C92.8893873,27.6618705 93.4247269,27.4703237 93.7914346,27.0845324 C94.1581422,26.698741 94.4472256,26.0296763 94.6640382,25.0665468 L94.6640382,25.0665468 Z M109.294871,14.9415468 L109.294871,25.2365108 L108.002026,25.2365108 L108.002026,23.682554 C107.439919,24.278777 106.885842,24.7185252 106.331766,24.9964029 C105.783043,25.2742806 105.202199,25.4118705 104.597265,25.4118705 C103.751429,25.4118705 103.098314,25.1636691 102.637922,24.6672662 C102.180207,24.1708633 101.944657,23.4667266 101.944657,22.557554 L101.944657,14.9415468 L103.349924,14.9415468 L103.349924,22.028777 C103.349924,22.7976619 103.481082,23.3453237 103.738045,23.6771583 C103.992332,24.006295 104.412573,24.1708633 104.99074,24.1708633 C105.491283,24.1708633 105.983795,24.0413669 106.457571,23.7904676 C106.934023,23.5395683 107.410475,23.1510791 107.878897,22.6223022 L107.878897,14.9415468 L109.294871,14.9415468 Z M113.218911,25.2365108 L113.218911,14.9415468 L114.527816,14.9415468 L114.527816,16.4982014 C115.084569,15.9019784 115.638646,15.4649281 116.184692,15.1816547 C116.733415,14.9010791 117.303552,14.7634892 117.903132,14.7634892 C118.756999,14.7634892 119.415467,15.006295 119.873182,15.5107914 C120.333574,16.0098921 120.563771,16.7140288 120.563771,17.6151079 L120.563771,25.2365108 L119.179918,25.2365108 L119.179918,18.1519784 C119.179918,17.3857914 119.048759,16.8354317 118.791796,16.4982014 C118.534833,16.1690647 118.117268,16.0017986 117.536425,16.0017986 C117.030529,16.0017986 116.53534,16.1285971 116.050857,16.3929856 C115.569052,16.6519784 115.089923,17.0377698 114.6215,17.5584532 L114.6215,25.2365108 L113.218911,25.2365108 Z M128.44397,23.9955036 L128.44397,25.2041367 C128.229834,25.2715827 128.004992,25.3228417 127.758735,25.3606115 C127.512479,25.3983813 127.239456,25.4118705 126.931636,25.4118705 C126.168777,25.4118705 125.58258,25.2446043 125.191782,24.9127698 C124.803661,24.5809353 124.605585,24.0818345 124.605585,23.4100719 L124.605585,16.1636691 L123.090574,16.1636691 L123.090574,14.9415468 L124.605585,14.9415468 L124.605585,11.6151079 L126.096506,11.6151079 L126.096506,14.9415468 L128.422557,14.9415468 L128.422557,16.1636691 L126.096506,16.1636691 L126.096506,22.7544964 C126.096506,23.3480216 126.184837,23.7284173 126.372206,23.8956835 C126.556898,24.0656475 126.910222,24.1519784 127.440208,24.1519784 C127.694495,24.1519784 128.010345,24.1034173 128.39579,24.006295 L128.44397,23.9955036 Z M136.409824,22.5305755 L136.409824,19.7086331 C134.704767,20.0539568 133.497577,20.4478417 132.777545,20.8902878 C132.06019,21.3354317 131.698835,21.8965827 131.698835,22.5818345 C131.698835,23.051259 131.851407,23.4235612 132.148521,23.7014388 C132.448311,23.9739209 132.855169,24.1115108 133.366418,24.1115108 C133.80272,24.1115108 134.265789,23.9847122 134.763655,23.7284173 C135.261521,23.4748201 135.810244,23.0755396 136.409824,22.5305755 L136.409824,22.5305755 Z M136.353614,23.8417266 C135.877161,24.3624101 135.371265,24.7508993 134.830572,25.0044964 C134.287202,25.2661871 133.717066,25.3902878 133.112132,25.3902878 C132.279679,25.3902878 131.599797,25.131295 131.077841,24.6052158 C130.555885,24.0818345 130.298922,23.3965827 130.298922,22.557554 C130.298922,21.4865108 130.764668,20.6232014 131.698835,19.9784173 C132.63568,19.3309353 134.204225,18.7940647 136.409824,18.3624101 L136.409824,17.6151079 C136.409824,17.1429856 136.222455,16.7598921 135.839687,16.455036 C135.459596,16.1501799 134.967084,16.0017986 134.36215,16.0017986 C133.808074,16.0017986 133.320914,16.1393885 132.892643,16.4118705 C132.464371,16.6870504 132.12443,17.0917266 131.862114,17.6151079 L130.633509,16.9541367 C131.00557,16.2284173 131.51682,15.6807554 132.148521,15.3138489 C132.793605,14.9442446 133.55111,14.7634892 134.439774,14.7634892 C135.52116,14.7634892 136.369674,15.0305755 136.963901,15.5620504 C137.560804,16.1016187 137.857918,16.8516187 137.857918,17.8120504 L137.857918,23.5638489 C137.857918,23.8255396 137.879332,24.0872302 137.916805,24.3381295 C137.946249,24.5998201 137.999783,24.8507194 138.0667,25.0854317 L138.0667,25.2365108 L136.503509,25.2365108 L136.353614,23.8417266 Z M141.602619,25.2365108 L141.602619,14.9415468 L142.914201,14.9415468 L142.914201,16.4982014 C143.484338,15.8884892 144.033061,15.4406475 144.555017,15.1708633 C145.076973,14.8956835 145.641756,14.7634892 146.249367,14.7634892 C146.875714,14.7634892 147.405701,14.9091727 147.817912,15.2059353 C148.22477,15.4973022 148.529914,15.9289568 148.711929,16.4982014 C149.276713,15.8911871 149.830789,15.448741 150.363452,15.1708633 C150.896115,14.8956835 151.476959,14.7634892 152.100629,14.7634892 C152.930406,14.7634892 153.578167,15.006295 154.027852,15.5053957 C154.482891,16.0017986 154.713087,16.7059353 154.713087,17.6151079 L154.713087,25.2365108 L153.313174,25.2365108 L153.313174,18.0791367 C153.313174,17.3426259 153.182015,16.8111511 152.930406,16.4847122 C152.678796,16.1636691 152.271938,16.0017986 151.707155,16.0017986 C151.195905,16.0017986 150.703393,16.1258993 150.232294,16.3848921 C149.766549,16.6384892 149.30348,17.0269784 148.837734,17.5584532 L148.837734,25.2365108 L147.483325,25.2365108 L147.483325,18.1142086 C147.483325,17.3723022 147.352167,16.8354317 147.100557,16.4982014 C146.846271,16.1690647 146.431382,16.0017986 145.858569,16.0017986 C145.360703,16.0017986 144.878897,16.1232014 144.423859,16.3714029 C143.96882,16.6196043 143.495044,17.0134892 143.007885,17.5584532 L143.007885,25.2365108 L141.602619,25.2365108 Z M158.519352,12.7401079 L160.202995,12.7401079 L160.202995,11 L158.519352,11 L158.519352,12.7401079 Z M158.639803,25.2365108 L160.087897,25.2365108 L160.087897,14.9415468 L158.639803,14.9415468 L158.639803,25.2365108 Z M164.713232,19.1555755 L169.69189,19.1555755 C169.67583,18.1735612 169.450987,17.3992806 169.012009,16.830036 C168.567677,16.2634892 167.98148,15.9829137 167.240035,15.9829137 C166.477176,15.9829137 165.874919,16.2580935 165.43594,16.8111511 C165.002315,17.3642086 164.756059,18.1465827 164.713232,19.1555755 L164.713232,19.1555755 Z M170.377125,22.3471223 L171.415684,23 C171.019533,23.8228417 170.48687,24.4271583 169.817695,24.823741 C169.148521,25.2203237 168.321421,25.4118705 167.333719,25.4118705 C166.006077,25.4118705 164.986255,24.9532374 164.290313,24.0440647 C163.586342,23.1375899 163.235694,21.8129496 163.235694,20.0755396 C163.235694,18.4190647 163.591695,17.1241007 164.30102,16.1798561 C165.007668,15.2302158 165.984663,14.7634892 167.218621,14.7634892 C168.479346,14.7634892 169.456341,15.2167266 170.152282,16.1232014 C170.850901,17.0350719 171.196195,18.3084532 171.196195,19.9406475 L171.196195,20.375 L164.694495,20.375 L164.694495,20.7122302 C164.694495,21.7751799 164.948781,22.6223022 165.452,23.2508993 C165.957896,23.8767986 166.627071,24.1897482 167.470231,24.1897482 C168.112638,24.1897482 168.682775,24.0359712 169.177964,23.7122302 C169.681184,23.4019784 170.077335,22.9406475 170.377125,22.3471223 L170.377125,22.3471223 Z M174.19142,25.2365108 L174.19142,14.9415468 L175.500326,14.9415468 L175.500326,16.4982014 C176.059755,15.9019784 176.608479,15.4649281 177.157202,15.1816547 C177.705925,14.9010791 178.276062,14.7634892 178.875642,14.7634892 C179.724155,14.7634892 180.382623,15.006295 180.848369,15.5107914 C181.303407,16.0098921 181.538957,16.7140288 181.538957,17.6151079 L181.538957,25.2365108 L180.152427,25.2365108 L180.152427,18.1519784 C180.152427,17.3857914 180.021269,16.8354317 179.764306,16.4982014 C179.51002,16.1690647 179.092455,16.0017986 178.511611,16.0017986 C178.003038,16.0017986 177.507849,16.1285971 177.02069,16.3929856 C176.538884,16.6519784 176.065109,17.0377698 175.59401,17.5584532 L175.59401,25.2365108 L174.19142,25.2365108 Z M189.41648,23.9955036 L189.41648,25.2041367 C189.202344,25.2715827 188.977501,25.3228417 188.731245,25.3606115 C188.484989,25.3983813 188.214642,25.4118705 187.904145,25.4118705 C187.135933,25.4118705 186.557766,25.2446043 186.164291,24.9127698 C185.773493,24.5809353 185.578094,24.0818345 185.578094,23.4100719 L185.578094,16.1636691 L184.063083,16.1636691 L184.063083,14.9415468 L185.578094,14.9415468 L185.578094,11.6151079 L187.069015,11.6151079 L187.069015,14.9415468 L189.395066,14.9415468 L189.395066,16.1636691 L187.069015,16.1636691 L187.069015,22.7544964 C187.069015,23.3480216 187.157346,23.7284173 187.342039,23.8956835 C187.529408,24.0656475 187.885408,24.1519784 188.412718,24.1519784 C188.664328,24.1519784 188.982855,24.1034173 189.362946,24.006295 L189.41648,23.9955036 Z M192.55357,20.0755396 C192.55357,21.4244604 192.794473,22.4496403 193.278955,23.1564748 C193.766114,23.868705 194.462056,24.2194245 195.372133,24.2194245 C196.274181,24.2194245 196.964769,23.868705 197.446575,23.1564748 C197.923027,22.4496403 198.166606,21.4298561 198.166606,20.0971223 C198.166606,18.7535971 197.92838,17.7365108 197.451928,17.0350719 C196.975476,16.3309353 196.279534,15.9829137 195.372133,15.9829137 C194.462056,15.9829137 193.766114,16.3309353 193.278955,17.0350719 C192.794473,17.7365108 192.55357,18.7508993 192.55357,20.0755396 L192.55357,20.0755396 Z M191.116183,20.0755396 C191.116183,18.3893885 191.485568,17.0809353 192.235043,16.1555755 C192.976488,15.2248201 194.023077,14.7634892 195.372133,14.7634892 C196.718513,14.7634892 197.765102,15.2248201 198.5119,16.1555755 C199.261376,17.0809353 199.636114,18.3893885 199.636114,20.0755396 C199.636114,21.7697842 199.261376,23.0836331 198.5119,24.0143885 C197.765102,24.9478417 196.718513,25.4118705 195.372133,25.4118705 C194.023077,25.4118705 192.976488,24.9478417 192.235043,24.0143885 C191.485568,23.0836331 191.116183,21.7697842 191.116183,20.0755396 L191.116183,20.0755396 Z M214.352601,17.5206835 C213.993923,16.9784173 213.595095,16.5791367 213.16147,16.3228417 C212.727845,16.0665468 212.240686,15.942446 211.702669,15.942446 C210.86754,15.942446 210.217102,16.2904676 209.759387,16.9865108 C209.293641,17.6879496 209.058092,18.669964 209.058092,19.9406475 C209.058092,21.3651079 209.293641,22.4307554 209.759387,23.1348921 C210.217102,23.8390288 210.918397,24.1897482 211.855241,24.1897482 C212.371844,24.1897482 212.83759,24.0629496 213.260508,23.8093525 C213.678073,23.5476619 214.050134,23.1672662 214.352601,22.6627698 L214.352601,17.5206835 Z M215.771251,11 L215.771251,22.028777 C215.771251,22.9055755 215.776604,23.5638489 215.795341,24.006295 C215.822108,24.448741 215.854228,24.8642086 215.899732,25.2365108 L214.812993,25.2365108 L214.478406,23.9442446 C214.098314,24.4541367 213.678073,24.8264388 213.233741,25.0503597 C212.784056,25.2796763 212.251393,25.3902878 211.625045,25.3902878 C210.353614,25.3902878 209.365912,24.926259 208.659264,23.9847122 C207.949939,23.0485612 207.599291,21.7293165 207.599291,20.0404676 C207.599291,18.3516187 207.955292,17.051259 208.66997,16.1366906 C209.381972,15.2194245 210.391087,14.7634892 211.702669,14.7634892 C212.304927,14.7634892 212.826883,14.8741007 213.271215,15.1007194 C213.715547,15.3273381 214.076901,15.6672662 214.352601,16.1232014 L214.352601,11 L215.771251,11 Z M220.297548,19.1555755 L225.27353,19.1555755 C225.260146,18.1735612 225.035303,17.3992806 224.590972,16.830036 C224.151993,16.2634892 223.560443,15.9829137 222.821674,15.9829137 C222.058815,15.9829137 221.459235,16.2580935 221.020256,16.8111511 C220.581278,17.3642086 220.340375,18.1465827 220.297548,19.1555755 L220.297548,19.1555755 Z M225.958764,22.3471223 L227,23 C226.598495,23.8228417 226.063156,24.4271583 225.399334,24.823741 C224.73016,25.2203237 223.905737,25.4118705 222.918035,25.4118705 C221.587716,25.4118705 220.570571,24.9532374 219.874629,24.0440647 C219.167981,23.1375899 218.817333,21.8129496 218.817333,20.0755396 C218.817333,18.4190647 219.173334,17.1241007 219.879983,16.1798561 C220.589308,15.2302158 221.563626,14.7634892 222.802937,14.7634892 C224.060985,14.7634892 225.040657,15.2167266 225.733922,16.1232014 C226.435217,17.0350719 226.780511,18.3084532 226.780511,19.9406475 L226.780511,20.375 L220.276134,20.375 L220.276134,20.7122302 C220.276134,21.7751799 220.527744,22.6223022 221.03364,23.2508993 C221.542212,23.8767986 222.211387,24.1897482 223.046517,24.1897482 C223.696954,24.1897482 224.264414,24.0359712 224.76228,23.7122302 C225.2655,23.4019784 225.661651,22.9406475 225.958764,22.3471223 L225.958764,22.3471223 Z" id="Fill-4" fill="white"></path>
                    <g id="Group-8" transform="translate(79.388471, 34.558571)">
                        <mask id="mask-4" fill="white">
                            <use xlink:href="#path-3"></use>
                        </mask>
                        <g id="Clip-7"></g>
                        <path d="M5.6504012,19.1678571 L0,0.251785714 L3.56529341,0.251785714 L7.8800479,15.6830357 L12.1466228,0.251785714 L15.7252994,0.251785714 L10.0882814,19.1678571 L5.6504012,19.1678571 Z M25.2300719,12.5276786 C23.6802934,12.7446429 22.5480719,13.0794643 21.8414371,13.5375 C21.1267725,13.9982143 20.7707784,14.6276786 20.7707784,15.4125 C20.7707784,15.8758929 20.8992575,16.2428571 21.1535389,16.4946429 C21.4131737,16.7517857 21.7691677,16.8776786 22.2322275,16.8776786 C22.7407904,16.8776786 23.244,16.7571429 23.7418563,16.5214286 C24.2343593,16.2803571 24.7348922,15.91875 25.2300719,15.4366071 L25.2300719,12.5276786 Z M25.5860659,19.1678571 L25.3103713,17.9705357 C24.6893892,18.4205357 24.0443174,18.7553571 23.3644491,18.9803571 C22.6899341,19.2053571 21.9832994,19.3151786 21.2445449,19.3151786 C20.1096467,19.3151786 19.2236766,18.9964286 18.5732515,18.3455357 C17.9281796,17.7080357 17.6016287,16.81875 17.6016287,15.6830357 C17.6016287,14.19375 18.2252874,13.0151786 19.4752814,12.1580357 C20.7225988,11.2955357 22.6765509,10.7035714 25.3291078,10.3741071 L25.3291078,9.31071429 C25.3291078,8.81517857 25.1658323,8.42142857 24.8339281,8.15089286 C24.493994,7.87767857 24.0229042,7.74107143 23.4045988,7.74107143 C22.7836168,7.74107143 22.2241976,7.87232143 21.7156347,8.14017857 C21.2151018,8.4 20.781485,8.79375 20.4201377,9.31071429 L18.235994,7.92589286 C18.8034431,7.04196429 19.5207844,6.38303571 20.3906946,5.93839286 C21.2632814,5.49375 22.2857605,5.26875 23.4501018,5.26875 C25.0266467,5.26875 26.2552275,5.62232143 27.1331677,6.33482143 C28.0137844,7.04732143 28.4554311,8.04107143 28.4554311,9.31071429 L28.4554311,17.3223214 C28.4554311,17.5366071 28.471491,17.7910714 28.5089641,18.0910714 C28.5384072,18.39375 28.5892635,18.75 28.6588563,19.1678571 L25.5860659,19.1678571 Z M34.1593653,19.1678571 L37.3847246,19.1678571 L37.3847246,0.251785714 L34.1593653,0.251785714 L34.1593653,19.1678571 Z M50.7545749,15.5410714 L50.7545749,9.06696429 C50.3102515,8.65714286 49.8926946,8.37053571 49.5206407,8.19107143 C49.1459102,8.01428571 48.7470898,7.92589286 48.3455928,7.92589286 C47.4515928,7.92589286 46.7503114,8.31160714 46.2444251,9.09107143 C45.730509,9.87053571 45.4789042,10.9553571 45.4789042,12.3455357 C45.4789042,13.7383929 45.730509,14.8205357 46.2444251,15.5785714 C46.7503114,16.3366071 47.4622994,16.7142857 48.3696826,16.7142857 C48.7845629,16.7142857 49.1753533,16.6258929 49.5527605,16.4464286 C49.9248144,16.2696429 50.3209581,15.9669643 50.7545749,15.5410714 L50.7545749,15.5410714 Z M51.2256647,17.7026786 C50.7438683,18.2892857 50.2058623,18.7232143 49.6036168,19.0017857 C49.0094012,19.2830357 48.3295329,19.4196429 47.555982,19.4196429 C45.9928204,19.4196429 44.7160599,18.7660714 43.7176707,17.4508929 C42.7246347,16.1383929 42.2294551,14.4321429 42.2294551,12.3455357 C42.2294551,10.2375 42.7139281,8.53125 43.6801976,7.22410714 C44.6491437,5.92232143 45.8991377,5.26875 47.4301796,5.26875 C48.1154012,5.26875 48.7149701,5.39196429 49.2502994,5.63839286 C49.7722455,5.88482143 50.2727784,6.27857143 50.7545749,6.83303571 L50.7545749,0.251785714 L53.9023114,0.251785714 L53.9023114,15.9910714 C53.9023114,16.3178571 53.9183713,16.7571429 53.9424611,17.2848214 C53.9692275,17.8178571 54.0067006,18.4446429 54.0522036,19.1678571 L51.5709521,19.1678571 L51.2256647,17.7026786 Z M61.9215449,10.5830357 L66.8974311,10.5830357 C66.8974311,9.67232143 66.6779461,8.96517857 66.238976,8.45892857 C65.800006,7.95267857 65.1897305,7.69553571 64.4215329,7.69553571 C63.693485,7.69553571 63.1126527,7.94732143 62.6736826,8.45357143 C62.2400659,8.95982143 61.9831078,9.66696429 61.9215449,10.5830357 L61.9215449,10.5830357 Z M69.9033054,16.4892857 C69.3867126,17.4508929 68.6693713,18.1848214 67.7459281,18.6803571 C66.8251617,19.1732143 65.7330898,19.4196429 64.4723892,19.4196429 C62.6522695,19.4196429 61.2363234,18.8008929 60.2218743,17.5660714 C59.2020719,16.3258929 58.6961856,14.6008929 58.6961856,12.3723214 C58.6961856,10.14375 59.2020719,8.4 60.2111677,7.15178571 C61.2202635,5.90089286 62.6281796,5.26875 64.4215329,5.26875 C66.2095329,5.26875 67.588006,5.87410714 68.5810419,7.08214286 C69.5633713,8.29553571 70.0558743,9.99642857 70.0558743,12.1928571 C70.0558743,12.2678571 70.050521,12.3830357 70.0398144,12.5383929 C70.0344611,12.7017857 70.0291078,12.8116071 70.0291078,12.8892857 L61.868012,12.9053571 C61.8840719,14.19375 62.1356766,15.1607143 62.6174731,15.8089286 C63.0965928,16.4517857 63.8139341,16.78125 64.7587904,16.78125 C65.3556826,16.78125 65.8695988,16.6419643 66.3085689,16.36875 C66.7421856,16.0928571 67.1543892,15.6428571 67.542503,15.0294643 L69.9033054,16.4892857 Z M78.0188982,15.65625 C78.4632216,16.0553571 78.8807784,16.3473214 79.2608623,16.5267857 C79.648976,16.7089286 80.0451198,16.8026786 80.4492934,16.8026786 C81.3486467,16.8026786 82.0472515,16.40625 82.5558144,15.6214286 C83.0617006,14.8366071 83.3186587,13.7383929 83.3186587,12.3455357 C83.3186587,10.9553571 83.0670539,9.87589286 82.566521,9.11785714 C82.0579581,8.35446429 81.3486467,7.97142857 80.4225269,7.97142857 C80.0210299,7.97142857 79.6222096,8.07053571 79.2421257,8.26071429 C78.854012,8.45357143 78.4471617,8.76160714 78.0188982,9.17946429 L78.0188982,15.65625 Z M78.0188982,17.8660714 L78.0188982,24.1071429 L74.8658084,24.1071429 L74.8658084,5.53392857 L77.202521,5.53392857 L77.5478084,7.02053571 C78.1286407,6.39642857 78.7067964,5.94642857 79.2769222,5.68125 C79.8470479,5.40267857 80.5001497,5.26875 81.2389042,5.26875 C82.8020659,5.26875 84.0761497,5.92232143 85.0638323,7.24017857 C86.0488383,8.55267857 86.5386647,10.2535714 86.5386647,12.3455357 C86.5386647,14.4589286 86.0595449,16.1705357 85.0905988,17.4669643 C84.118976,18.7714286 82.8743353,19.4196429 81.3379401,19.4196429 C80.6527186,19.4196429 80.0504731,19.2991071 79.5285269,19.0526786 C78.9958743,18.80625 78.4926647,18.4098214 78.0188982,17.8660714 L78.0188982,17.8660714 Z M93.6451617,10.5830357 L98.6210479,10.5830357 C98.6210479,9.67232143 98.4015629,8.96517857 97.9625928,8.45892857 C97.5182695,7.95267857 96.9106707,7.69553571 96.1424731,7.69553571 C95.4171018,7.69553571 94.8362695,7.94732143 94.3972994,8.45357143 C93.9636826,8.95982143 93.7067246,9.66696429 93.6451617,10.5830357 L93.6451617,10.5830357 Z M101.626922,16.4892857 C101.115683,17.4508929 100.392988,18.1848214 99.4668683,18.6803571 C98.5487784,19.1732143 97.4540299,19.4196429 96.196006,19.4196429 C94.3758862,19.4196429 92.9599401,18.8008929 91.945491,17.5660714 C90.9256886,16.3258929 90.4171257,14.6008929 90.4171257,12.3723214 C90.4171257,10.14375 90.9256886,8.4 91.9347844,7.15178571 C92.9438802,5.90089286 94.3491198,5.26875 96.1424731,5.26875 C97.9251198,5.26875 99.316976,5.87410714 100.299305,7.08214286 C101.281635,8.29553571 101.779491,9.99642857 101.779491,12.1928571 C101.779491,12.2678571 101.774138,12.3830357 101.768784,12.5383929 C101.758078,12.7017857 101.752725,12.8116071 101.752725,12.8892857 L93.5916287,12.9053571 C93.6076886,14.19375 93.8592934,15.1607143 94.3384132,15.8089286 C94.8202096,16.4517857 95.5375509,16.78125 96.4877605,16.78125 C97.0792994,16.78125 97.5958922,16.6419643 98.029509,16.36875 C98.4631257,16.0928571 98.878006,15.6428571 99.2634431,15.0294643 L101.626922,16.4892857 Z M106.562659,19.1678571 L106.562659,5.53392857 L109.53106,5.53392857 L109.53106,7.14642857 C110.37688,6.46071429 111.120988,5.97321429 111.75803,5.69732143 C112.400425,5.41339286 113.053527,5.26875 113.733395,5.26875 C114.999449,5.26875 115.955012,5.64375 116.594731,6.38839286 C117.231772,7.13571429 117.550293,8.23392857 117.550293,9.69910714 L117.550293,19.1678571 L114.330287,19.1678571 L114.330287,10.3258929 C114.330287,9.43660714 114.215192,8.81517857 113.974293,8.44821429 C113.738749,8.07589286 113.337251,7.89910714 112.777832,7.89910714 C112.306743,7.89910714 111.822269,8.01964286 111.329766,8.26607143 C110.83191,8.50982143 110.309964,8.89285714 109.761251,9.40982143 L109.761251,19.1678571 L106.562659,19.1678571 Z M116.062078,0 C115.845269,1.04732143 115.516042,1.82410714 115.082425,2.33303571 C114.654162,2.82857143 114.100096,3.08571429 113.425581,3.08571429 C113.238216,3.08571429 113.069587,3.075 112.919695,3.05357143 C112.761772,3.03482143 112.61991,2.99732143 112.486078,2.95982143 L111.356533,2.61428571 C111.193257,2.57410714 111.046042,2.53660714 110.91221,2.51517857 C110.775701,2.49375 110.649898,2.48303571 110.529449,2.48303571 C110.243048,2.48303571 110.012856,2.56339286 109.833521,2.71875 C109.656862,2.88214286 109.515,3.13392857 109.410611,3.47946429 L108.016078,3.47946429 C108.219503,2.45357143 108.532671,1.70089286 108.955581,1.21875 C109.378491,0.73125 109.927204,0.490178571 110.607072,0.490178571 C110.786407,0.490178571 110.963066,0.50625 111.147754,0.535714286 C111.329766,0.565178571 111.511778,0.608035714 111.712527,0.672321429 L112.876868,0.980357143 C112.975904,1.01785714 113.085647,1.04732143 113.200743,1.06607143 C113.315838,1.08214286 113.441641,1.09285714 113.57815,1.09285714 C113.848491,1.09285714 114.073329,0.999107143 114.258018,0.814285714 C114.44003,0.6375 114.576539,0.361607143 114.670222,0 L116.062078,0 Z M129.951198,12.5276786 C128.404096,12.7446429 127.269198,13.0794643 126.55721,13.5375 C125.853251,13.9982143 125.497257,14.6276786 125.497257,15.4125 C125.497257,15.8758929 125.617707,16.2428571 125.877341,16.4946429 C126.134299,16.7517857 126.490293,16.8776786 126.95603,16.8776786 C127.461916,16.8776786 127.965126,16.7571429 128.460305,16.5214286 C128.952808,16.2803571 129.453341,15.91875 129.951198,15.4366071 L129.951198,12.5276786 Z M130.312545,19.1678571 L130.02882,17.9705357 C129.413192,18.4205357 128.765443,18.7553571 128.085575,18.9803571 C127.41106,19.2053571 126.704425,19.3151786 125.968347,19.3151786 C124.833449,19.3151786 123.944802,18.9964286 123.291701,18.3455357 C122.646629,17.7080357 122.322754,16.81875 122.322754,15.6830357 C122.322754,14.19375 122.951766,13.0151786 124.196407,12.1580357 C125.443725,11.2955357 127.395,10.7035714 130.050234,10.3741071 L130.050234,9.31071429 C130.050234,8.81517857 129.889635,8.42142857 129.555054,8.15089286 C129.21512,7.87767857 128.74403,7.74107143 128.125725,7.74107143 C127.504743,7.74107143 126.945323,7.87232143 126.43676,8.14017857 C125.936228,8.4 125.502611,8.79375 125.141263,9.31071429 L122.95712,7.92589286 C123.521892,7.04196429 124.24191,6.38303571 125.114497,5.93839286 C125.984407,5.49375 127.006886,5.26875 128.173904,5.26875 C129.753126,5.26875 130.976353,5.62232143 131.854293,6.33482143 C132.737587,7.04732143 133.176557,8.04107143 133.176557,9.31071429 L133.176557,17.3223214 C133.176557,17.5366071 133.192617,17.7910714 133.23009,18.0910714 C133.259533,18.39375 133.313066,18.75 133.379982,19.1678571 L130.312545,19.1678571 Z M137.734886,16.6821429 L139.916353,14.9732143 C140.432946,15.6375 140.944186,16.1330357 141.458102,16.4517857 C141.963988,16.7678571 142.493964,16.9285714 143.042677,16.9285714 C143.620832,16.9285714 144.086569,16.7919643 144.42115,16.5214286 C144.761084,16.2482143 144.929713,15.88125 144.929713,15.4125 C144.929713,14.7321429 144.217725,14.1241071 142.785719,13.6017857 C142.63315,13.5375 142.523407,13.4919643 142.445784,13.4651786 C140.746114,12.8169643 139.605862,12.1982143 139.04109,11.5928571 C138.468287,10.9901786 138.17921,10.2160714 138.17921,9.25446429 C138.17921,8.08660714 138.612826,7.13571429 139.482737,6.38839286 C140.34997,5.64375 141.479515,5.26875 142.863341,5.26875 C143.794814,5.26875 144.629928,5.44017857 145.379389,5.775 C146.131527,6.11517857 146.822102,6.6375 147.459144,7.35 L145.424892,9.11785714 C144.985922,8.65178571 144.546952,8.30625 144.113335,8.08125 C143.679719,7.85625 143.235395,7.74107143 142.775012,7.74107143 C142.231653,7.74107143 141.808743,7.86696429 141.498251,8.10803571 C141.190437,8.34910714 141.040545,8.67857143 141.040545,9.09107143 C141.040545,9.6 141.749856,10.1223214 143.181862,10.6553571 C143.564623,10.7973214 143.861731,10.9125 144.081216,10.9955357 C145.529281,11.5553571 146.511611,12.1419643 147.036234,12.76875 C147.563533,13.3875 147.825844,14.2232143 147.825844,15.2651786 C147.825844,16.5267857 147.392228,17.5419643 146.522317,18.3053571 C145.655084,19.0741071 144.501449,19.4544643 143.061413,19.4544643 C141.942575,19.4544643 140.949539,19.2348214 140.093012,18.7848214 C139.241838,18.3455357 138.457581,17.6410714 137.734886,16.6821429 L137.734886,16.6821429 Z" id="Fill-6" fill="white" mask="url(#mask-4)"></path>
                    </g>
                </g>
                <path d="M5.731,14.168 C8.531,14.168 9.889,12.768 9.889,11.13 C9.889,7.532 4.191,8.778 4.191,6.972 C4.191,6.356 4.709,5.852 6.053,5.852 C6.921,5.852 7.859,6.104 8.769,6.622 L9.469,4.9 C8.559,4.326 7.299,4.032 6.067,4.032 C3.281,4.032 1.937,5.418 1.937,7.084 C1.937,10.724 7.635,9.464 7.635,11.298 C7.635,11.9 7.089,12.348 5.745,12.348 C4.569,12.348 3.337,11.928 2.511,11.326 L1.741,13.034 C2.609,13.706 4.177,14.168 5.731,14.168 Z M19.031,14 L19.031,12.18 L13.697,12.18 L13.697,9.912 L18.247,9.912 L18.247,8.148 L13.697,8.148 L13.697,6.02 L18.849,6.02 L18.849,4.2 L11.443,4.2 L11.443,14 L19.031,14 Z M23.105,14 L23.105,11.27 L25.191,11.27 L27.081,14 L29.517,14 L27.319,10.85 C28.593,10.304 29.335,9.226 29.335,7.756 C29.335,5.558 27.697,4.2 25.079,4.2 L20.837,4.2 L20.837,14 L23.105,14 Z M24.953,9.464 L23.105,9.464 L23.105,6.048 L24.953,6.048 C26.339,6.048 27.039,6.678 27.039,7.756 C27.039,8.82 26.339,9.464 24.953,9.464 Z M36.307,14 L40.549,4.2 L38.295,4.2 L35.271,11.2 L32.289,4.2 L29.839,4.2 L34.067,14 L36.307,14 Z M43.839,14 L43.839,4.2 L41.571,4.2 L41.571,14 L43.839,14 Z M50.853,14.168 C52.561,14.168 53.975,13.552 54.899,12.418 L53.443,11.074 C52.785,11.844 51.959,12.236 50.979,12.236 C49.145,12.236 47.843,10.948 47.843,9.1 C47.843,7.252 49.145,5.964 50.979,5.964 C51.959,5.964 52.785,6.356 53.443,7.112 L54.899,5.768 C53.975,4.648 52.561,4.032 50.867,4.032 C47.815,4.032 45.547,6.146 45.547,9.1 C45.547,12.054 47.815,14.168 50.853,14.168 Z M58.693,14 L58.693,4.2 L56.425,4.2 L56.425,14 L58.693,14 Z M65.763,14.168 C68.843,14.168 71.125,12.026 71.125,9.1 C71.125,6.174 68.843,4.032 65.763,4.032 C62.669,4.032 60.401,6.188 60.401,9.1 C60.401,12.012 62.669,14.168 65.763,14.168 Z M65.763,12.236 C64.013,12.236 62.697,10.962 62.697,9.1 C62.697,7.238 64.013,5.964 65.763,5.964 C67.513,5.964 68.829,7.238 68.829,9.1 C68.829,10.962 67.513,12.236 65.763,12.236 Z M81.247,14 C84.453,14 86.651,12.068 86.651,9.1 C86.651,6.132 84.453,4.2 81.247,4.2 L76.795,4.2 L76.795,14 L81.247,14 Z M81.135,12.138 L79.063,12.138 L79.063,6.062 L81.135,6.062 C83.081,6.062 84.355,7.224 84.355,9.1 C84.355,10.976 83.081,12.138 81.135,12.138 Z M95.947,14 L95.947,12.18 L90.613,12.18 L90.613,9.912 L95.163,9.912 L95.163,8.148 L90.613,8.148 L90.613,6.02 L95.765,6.02 L95.765,4.2 L88.359,4.2 L88.359,14 L95.947,14 Z M108.897,14 L108.897,12.152 L103.983,12.152 L103.983,4.2 L101.715,4.2 L101.715,14 L108.897,14 Z M112.439,14 L112.439,4.2 L110.171,4.2 L110.171,14 L112.439,14 Z M116.891,14 L116.891,8.246 L119.761,12.964 L120.783,12.964 L123.667,8.12 L123.681,14 L125.809,14 L125.781,4.2 L123.919,4.2 L120.307,10.29 L116.639,4.2 L114.763,4.2 L114.763,14 L116.891,14 Z M130.401,14 L130.401,11.298 L132.375,11.298 C134.993,11.298 136.631,9.94 136.631,7.756 C136.631,5.558 134.993,4.2 132.375,4.2 L128.133,4.2 L128.133,14 L130.401,14 Z M132.249,9.45 L130.401,9.45 L130.401,6.048 L132.249,6.048 C133.635,6.048 134.335,6.678 134.335,7.756 C134.335,8.82 133.635,9.45 132.249,9.45 Z M140.649,14 L140.649,4.2 L138.381,4.2 L138.381,14 L140.649,14 Z M150.561,14 L150.561,12.18 L145.227,12.18 L145.227,9.912 L149.777,9.912 L149.777,8.148 L145.227,8.148 L145.227,6.02 L150.379,6.02 L150.379,4.2 L142.973,4.2 L142.973,14 L150.561,14 Z M160.305,14 L160.305,12.152 L154.733,12.152 L160.095,5.67 L160.095,4.2 L151.849,4.2 L151.849,6.048 L157.113,6.048 L151.737,12.53 L151.737,14 L160.305,14 Z M162.797,14 L163.665,11.9 L168.215,11.9 L169.083,14 L171.463,14 L167.081,4.2 L164.841,4.2 L160.473,14 L162.797,14 Z M167.501,10.178 L164.393,10.178 L165.947,6.426 L167.501,10.178 Z M181.627,14 L185.869,4.2 L183.615,4.2 L180.591,11.2 L177.609,4.2 L175.159,4.2 L179.387,14 L181.627,14 Z M189.159,14 L189.159,4.2 L186.891,4.2 L186.891,14 L189.159,14 Z M192.519,14 L193.387,11.9 L197.937,11.9 L198.805,14 L201.185,14 L196.803,4.2 L194.563,4.2 L190.195,14 L192.519,14 Z M197.223,10.178 L194.115,10.178 L195.669,6.426 L197.223,10.178 Z M204.475,14 L204.475,11.27 L206.561,11.27 L208.451,14 L210.887,14 L208.689,10.85 C209.963,10.304 210.705,9.226 210.705,7.756 C210.705,5.558 209.067,4.2 206.449,4.2 L202.207,4.2 L202.207,14 L204.475,14 Z M206.323,9.464 L204.475,9.464 L204.475,6.048 L206.323,6.048 C207.709,6.048 208.409,6.678 208.409,7.756 C208.409,8.82 207.709,9.464 206.323,9.464 Z M214.765,14 L214.765,4.2 L212.497,4.2 L212.497,14 L214.765,14 Z M218.125,14 L218.993,11.9 L223.543,11.9 L224.411,14 L226.791,14 L222.409,4.2 L220.169,4.2 L215.801,14 L218.125,14 Z M222.829,10.178 L219.721,10.178 L221.275,6.426 L222.829,10.178 Z" id="SERVICIODELIMPIEZAVIARIA" fill="white" fill-rule="nonzero"></path>
                <path d="M7.31626667,100.112 C8.84226667,100.112 10.1582667,99.58 11.0542667,98.572 L10.1442667,97.69 C9.38826667,98.488 8.46426667,98.866 7.38626667,98.866 C5.17426667,98.866 3.53626667,97.27 3.53626667,95.1 C3.53626667,92.93 5.17426667,91.334 7.38626667,91.334 C8.46426667,91.334 9.38826667,91.698 10.1442667,92.496 L11.0542667,91.614 C10.1582667,90.606 8.84226667,90.088 7.33026667,90.088 C4.34826667,90.088 2.13626667,92.202 2.13626667,95.1 C2.13626667,97.998 4.34826667,100.112 7.31626667,100.112 Z M16.0302667,100.084 C18.2562667,100.084 19.8802667,98.502 19.8802667,96.29 C19.8802667,94.078 18.2562667,92.51 16.0302667,92.51 C13.8042667,92.51 12.1662667,94.078 12.1662667,96.29 C12.1662667,98.502 13.8042667,100.084 16.0302667,100.084 Z M16.0302667,98.908 C14.6022667,98.908 13.5242667,97.872 13.5242667,96.29 C13.5242667,94.708 14.6022667,93.686 16.0302667,93.686 C17.4582667,93.686 18.5222667,94.708 18.5222667,96.29 C18.5222667,97.872 17.4582667,98.908 16.0302667,98.908 Z M23.3862667,100 L23.3862667,96.178 C23.3862667,94.568 24.3102667,93.714 25.7382667,93.714 C27.0122667,93.714 27.7402667,94.428 27.7402667,95.884 L27.7402667,100 L29.0842667,100 L29.0842667,95.73 C29.0842667,93.546 27.8102667,92.51 26.0042667,92.51 C24.8282667,92.51 23.8762667,92.944 23.3302667,93.7 L23.3302667,92.58 L22.0422667,92.58 L22.0422667,100 L23.3862667,100 Z M35.1522667,100.084 C36.4822667,100.084 37.5882667,99.524 38.1762667,98.488 L37.1542667,97.844 C36.6782667,98.572 35.9502667,98.908 35.1382667,98.908 C33.6822667,98.908 32.5902667,97.9 32.5902667,96.29 C32.5902667,94.708 33.6822667,93.686 35.1382667,93.686 C35.9502667,93.686 36.6782667,94.022 37.1542667,94.75 L38.1762667,94.092 C37.5882667,93.056 36.4822667,92.51 35.1522667,92.51 C32.8702667,92.51 31.2322667,94.078 31.2322667,96.29 C31.2322667,98.502 32.8702667,100.084 35.1522667,100.084 Z M43.4042667,100.084 C44.6362667,100.084 45.6582667,99.664 46.3302667,98.88 L45.5882667,98.012 C45.0422667,98.614 44.3142667,98.908 43.4462667,98.908 C41.9762667,98.908 40.9262667,98.04 40.7582667,96.738 L46.7782667,96.738 C46.7922667,96.612 46.8062667,96.444 46.8062667,96.332 C46.8062667,94.05 45.2802667,92.51 43.1382667,92.51 C40.9962667,92.51 39.4142667,94.092 39.4142667,96.29 C39.4142667,98.502 41.0102667,100.084 43.4042667,100.084 Z M45.5182667,95.772 L40.7582667,95.772 C40.8982667,94.512 41.8502667,93.644 43.1382667,93.644 C44.4402667,93.644 45.3782667,94.526 45.5182667,95.772 Z M49.7102667,91.152 C50.2422667,91.152 50.6202667,90.76 50.6202667,90.256 C50.6202667,89.78 50.2282667,89.402 49.7102667,89.402 C49.1922667,89.402 48.8002667,89.794 48.8002667,90.284 C48.8002667,90.774 49.1922667,91.152 49.7102667,91.152 Z M48.0162667,102.8 C49.5422667,102.8 50.3822667,101.848 50.3822667,100.336 L50.3822667,92.58 L49.0382667,92.58 L49.0382667,100.364 C49.0382667,101.218 48.6462667,101.666 47.9322667,101.666 C47.4982667,101.666 47.1062667,101.54 46.8402667,101.316 L46.4062667,102.352 C46.7842667,102.66 47.4002667,102.8 48.0162667,102.8 Z M55.4142667,100.084 C56.5762667,100.084 57.4022667,99.692 57.8502667,99.02 L57.8502667,100 L59.1242667,100 L59.1242667,95.52 C59.1242667,93.49 57.9762667,92.51 55.9462667,92.51 C54.7562667,92.51 53.6502667,92.846 52.8802667,93.462 L53.4402667,94.47 C54.0142667,93.98 54.9102667,93.672 55.7922667,93.672 C57.1222667,93.672 57.7802667,94.33 57.7802667,95.464 L57.7802667,95.73 L55.6522667,95.73 C53.4402667,95.73 52.6702667,96.71 52.6702667,97.9 C52.6702667,99.188 53.7342667,100.084 55.4142667,100.084 Z M55.6382667,99.048 C54.6162667,99.048 54.0002667,98.586 54.0002667,97.844 C54.0002667,97.214 54.3782667,96.696 55.7082667,96.696 L57.7802667,96.696 L57.7802667,97.732 C57.4442667,98.586 56.6462667,99.048 55.6382667,99.048 Z M63.2602667,100 L63.2602667,89.612 L61.9162667,89.612 L61.9162667,100 L63.2602667,100 Z M67.0042667,91.502 L69.3562667,89.682 L67.6482667,89.682 L65.7442667,91.502 L67.0042667,91.502 Z M67.4662667,100 L67.4662667,92.58 L66.1222667,92.58 L66.1222667,100 L67.4662667,100 Z M72.4982667,100.084 C73.6602667,100.084 74.4862667,99.692 74.9342667,99.02 L74.9342667,100 L76.2082667,100 L76.2082667,95.52 C76.2082667,93.49 75.0602667,92.51 73.0302667,92.51 C71.8402667,92.51 70.7342667,92.846 69.9642667,93.462 L70.5242667,94.47 C71.0982667,93.98 71.9942667,93.672 72.8762667,93.672 C74.2062667,93.672 74.8642667,94.33 74.8642667,95.464 L74.8642667,95.73 L72.7362667,95.73 C70.5242667,95.73 69.7542667,96.71 69.7542667,97.9 C69.7542667,99.188 70.8182667,100.084 72.4982667,100.084 Z M72.7222667,99.048 C71.7002667,99.048 71.0842667,98.586 71.0842667,97.844 C71.0842667,97.214 71.4622667,96.696 72.7922667,96.696 L74.8642667,96.696 L74.8642667,97.732 C74.5282667,98.586 73.7302667,99.048 72.7222667,99.048 Z M86.1322667,100.084 C87.2242667,100.084 88.1762667,99.664 88.7782667,98.824 L88.7782667,100 L90.0662667,100 L90.0662667,89.612 L88.7222667,89.612 L88.7222667,93.7 C88.1062667,92.902 87.1822667,92.51 86.1322667,92.51 C83.9622667,92.51 82.3802667,94.022 82.3802667,96.29 C82.3802667,98.558 83.9622667,100.084 86.1322667,100.084 Z M86.2442667,98.908 C84.8162667,98.908 83.7382667,97.872 83.7382667,96.29 C83.7382667,94.708 84.8162667,93.686 86.2442667,93.686 C87.6582667,93.686 88.7362667,94.708 88.7362667,96.29 C88.7362667,97.872 87.6582667,98.908 86.2442667,98.908 Z M96.2182667,100.084 C97.4502667,100.084 98.4722667,99.664 99.1442667,98.88 L98.4022667,98.012 C97.8562667,98.614 97.1282667,98.908 96.2602667,98.908 C94.7902667,98.908 93.7402667,98.04 93.5722667,96.738 L99.5922667,96.738 C99.6062667,96.612 99.6202667,96.444 99.6202667,96.332 C99.6202667,94.05 98.0942667,92.51 95.9522667,92.51 C93.8102667,92.51 92.2282667,94.092 92.2282667,96.29 C92.2282667,98.502 93.8242667,100.084 96.2182667,100.084 Z M98.3322667,95.772 L93.5722667,95.772 C93.7122667,94.512 94.6642667,93.644 95.9522667,93.644 C97.2542667,93.644 98.1922667,94.526 98.3322667,95.772 Z M107.388267,100 L107.388267,92.902 L110.930267,98.81 L111.574267,98.81 L115.116267,92.86 L115.130267,100 L116.474267,100 L116.460267,90.2 L115.312267,90.2 L111.280267,97.088 L107.192267,90.2 L106.044267,90.2 L106.044267,100 L107.388267,100 Z M122.822267,100.084 C124.054267,100.084 125.076267,99.664 125.748267,98.88 L125.006267,98.012 C124.460267,98.614 123.732267,98.908 122.864267,98.908 C121.394267,98.908 120.344267,98.04 120.176267,96.738 L126.196267,96.738 C126.210267,96.612 126.224267,96.444 126.224267,96.332 C126.224267,94.05 124.698267,92.51 122.556267,92.51 C120.414267,92.51 118.832267,94.092 118.832267,96.29 C118.832267,98.502 120.428267,100.084 122.822267,100.084 Z M124.936267,95.772 L120.176267,95.772 C120.316267,94.512 121.268267,93.644 122.556267,93.644 C123.858267,93.644 124.796267,94.526 124.936267,95.772 Z M131.452267,100.084 C132.544267,100.084 133.496267,99.664 134.098267,98.824 L134.098267,100 L135.386267,100 L135.386267,89.612 L134.042267,89.612 L134.042267,93.7 C133.426267,92.902 132.502267,92.51 131.452267,92.51 C129.282267,92.51 127.700267,94.022 127.700267,96.29 C127.700267,98.558 129.282267,100.084 131.452267,100.084 Z M131.564267,98.908 C130.136267,98.908 129.058267,97.872 129.058267,96.29 C129.058267,94.708 130.136267,93.686 131.564267,93.686 C132.978267,93.686 134.056267,94.708 134.056267,96.29 C134.056267,97.872 132.978267,98.908 131.564267,98.908 Z M138.906267,91.152 C139.438267,91.152 139.816267,90.76 139.816267,90.256 C139.816267,89.78 139.424267,89.402 138.906267,89.402 C138.388267,89.402 137.996267,89.794 137.996267,90.284 C137.996267,90.774 138.388267,91.152 138.906267,91.152 Z M139.578267,100 L139.578267,92.58 L138.234267,92.58 L138.234267,100 L139.578267,100 Z M145.618267,100.084 C147.844267,100.084 149.468267,98.502 149.468267,96.29 C149.468267,94.078 147.844267,92.51 145.618267,92.51 C143.392267,92.51 141.754267,94.078 141.754267,96.29 C141.754267,98.502 143.392267,100.084 145.618267,100.084 Z M145.618267,98.908 C144.190267,98.908 143.112267,97.872 143.112267,96.29 C143.112267,94.708 144.190267,93.686 145.618267,93.686 C147.046267,93.686 148.110267,94.708 148.110267,96.29 C148.110267,97.872 147.046267,98.908 145.618267,98.908 Z M155.850267,100 L156.928267,97.55 L162.136267,97.55 L163.214267,100 L164.684267,100 L160.232267,90.2 L158.846267,90.2 L154.408267,100 L155.850267,100 Z M161.646267,96.43 L157.418267,96.43 L159.532267,91.628 L161.646267,96.43 Z M167.588267,100 L167.588267,96.178 C167.588267,94.568 168.470267,93.714 169.814267,93.714 C171.032267,93.714 171.732267,94.428 171.732267,95.884 L171.732267,100 L173.076267,100 L173.076267,96.178 C173.076267,94.568 173.958267,93.714 175.302267,93.714 C176.520267,93.714 177.220267,94.428 177.220267,95.884 L177.220267,100 L178.564267,100 L178.564267,95.73 C178.564267,93.546 177.332267,92.51 175.526267,92.51 C174.266267,92.51 173.230267,93.042 172.670267,93.882 C172.180267,92.958 171.228267,92.51 170.094267,92.51 C168.974267,92.51 168.064267,92.93 167.532267,93.686 L167.532267,92.58 L166.244267,92.58 L166.244267,100 L167.588267,100 Z M185.276267,100.084 C187.446267,100.084 189.028267,98.558 189.028267,96.29 C189.028267,94.022 187.446267,92.51 185.276267,92.51 C184.226267,92.51 183.302267,92.902 182.686267,93.7 L182.686267,89.612 L181.342267,89.612 L181.342267,100 L182.630267,100 L182.630267,98.824 C183.232267,99.664 184.184267,100.084 185.276267,100.084 Z M185.164267,98.908 C183.750267,98.908 182.672267,97.872 182.672267,96.29 C182.672267,94.708 183.750267,93.686 185.164267,93.686 C186.592267,93.686 187.670267,94.708 187.670267,96.29 C187.670267,97.872 186.592267,98.908 185.164267,98.908 Z M191.862267,91.152 C192.394267,91.152 192.772267,90.76 192.772267,90.256 C192.772267,89.78 192.380267,89.402 191.862267,89.402 C191.344267,89.402 190.952267,89.794 190.952267,90.284 C190.952267,90.774 191.344267,91.152 191.862267,91.152 Z M192.534267,100 L192.534267,92.58 L191.190267,92.58 L191.190267,100 L192.534267,100 Z M198.700267,100.084 C199.932267,100.084 200.954267,99.664 201.626267,98.88 L200.884267,98.012 C200.338267,98.614 199.610267,98.908 198.742267,98.908 C197.272267,98.908 196.222267,98.04 196.054267,96.738 L202.074267,96.738 C202.088267,96.612 202.102267,96.444 202.102267,96.332 C202.102267,94.05 200.576267,92.51 198.434267,92.51 C196.292267,92.51 194.710267,94.092 194.710267,96.29 C194.710267,98.502 196.306267,100.084 198.700267,100.084 Z M200.814267,95.772 L196.054267,95.772 C196.194267,94.512 197.146267,93.644 198.434267,93.644 C199.736267,93.644 200.674267,94.526 200.814267,95.772 Z M205.608267,100 L205.608267,96.178 C205.608267,94.568 206.532267,93.714 207.960267,93.714 C209.234267,93.714 209.962267,94.428 209.962267,95.884 L209.962267,100 L211.306267,100 L211.306267,95.73 C211.306267,93.546 210.032267,92.51 208.226267,92.51 C207.050267,92.51 206.098267,92.944 205.552267,93.7 L205.552267,92.58 L204.264267,92.58 L204.264267,100 L205.608267,100 Z M216.646267,100.084 C217.248267,100.084 217.864267,99.916 218.270267,99.566 L217.850267,98.6 C217.570267,98.824 217.192267,98.95 216.800267,98.95 C216.058267,98.95 215.638267,98.502 215.638267,97.704 L215.638267,93.686 L217.766267,93.686 L217.766267,92.58 L215.638267,92.58 L215.638267,90.956 L214.294267,90.956 L214.294267,92.58 L213.034267,92.58 L213.034267,93.686 L214.294267,93.686 L214.294267,97.76 C214.294267,99.258 215.148267,100.084 216.646267,100.084 Z M223.246267,100.084 C224.478267,100.084 225.500267,99.664 226.172267,98.88 L225.430267,98.012 C224.884267,98.614 224.156267,98.908 223.288267,98.908 C221.818267,98.908 220.768267,98.04 220.600267,96.738 L226.620267,96.738 C226.634267,96.612 226.648267,96.444 226.648267,96.332 C226.648267,94.05 225.122267,92.51 222.980267,92.51 C220.838267,92.51 219.256267,94.092 219.256267,96.29 C219.256267,98.502 220.852267,100.084 223.246267,100.084 Z M225.360267,95.772 L220.600267,95.772 C220.740267,94.512 221.692267,93.644 222.980267,93.644 C224.282267,93.644 225.220267,94.526 225.360267,95.772 Z" id="ConcejaladeMedioAmbiente" fill="white" fill-rule="nonzero"></path>
                <line x1="1" y1="18" x2="228.214582" y2="18" id="Path-2" stroke="#FFFFFF"></line>
                <line x1="1" y1="86" x2="228.214582" y2="86" id="Path-2-Copy" stroke="#FFFFFF"></line>
            </g>
        </g>
    </g>
</svg>