<?xml version="1.0" encoding="UTF-8"?>
<svg width="21px" height="17px" viewBox="0 0 21 17" version="1.1" xmlns="http://www.w3.org/2000/svg" xmlns:xlink="http://www.w3.org/1999/xlink">
    
    <g id="Symbols" stroke="none" stroke-width="1" fill="none" fill-rule="evenodd">
        <g id="Iconos-/-Visibilidad-/-Visible" transform="translate(-2.000000, -4.000000)">
            <g id="Group-3" transform="translate(2.499990, 5.000313)">
                <g id="Group-2" transform="translate(0.000000, 1.499682)" fill="#979797" fill-rule="nonzero">
                    <g id="Group">
                        <path d="M0.119605853,5.58395722 C6.47501918,-1.86660294 13.1532273,-1.85954415 19.8443804,5.59449964 C19.9413139,5.702485 19.9826018,5.84101932 19.9701402,5.97494438 C19.9823961,6.10822718 19.9410728,6.24634109 19.8443804,6.35405783 C13.1532273,13.8081016 6.47501918,13.8151604 0.119605853,6.36460025 C0.0237928144,6.25227698 -0.0136389623,6.10979755 0.00437833025,5.97412667 C-0.0136389623,5.83875992 0.0237928144,5.69628049 0.119605853,5.58395722 Z M18.8378791,5.97410631 C12.6428732,-0.744890091 6.75608435,-0.655215151 0.880413396,6.23293479 L1.103,5.974 C6.83930207,12.5251084 12.5832533,12.6051018 18.6169036,6.21136767 Z" id="Combined-Shape"></path>
                    </g>
                    <path d="M10.0000096,2.00000451 C7.79087063,2.00000451 6.00000962,3.79086551 6.00000962,6.00000451 C6.00000962,8.20914351 7.79087063,10.0000045 10.0000096,10.0000045 C12.2091486,10.0000045 14.0000096,8.20914351 14.0000096,6.00000451 C14.0000096,3.79086551 12.2091486,2.00000451 10.0000096,2.00000451 Z M10.0000096,3.00000451 C11.6568639,3.00000451 13.0000096,4.34315026 13.0000096,6.00000451 C13.0000096,7.65685876 11.6568639,9.00000451 10.0000096,9.00000451 C8.34315538,9.00000451 7.00000962,7.65685876 7.00000962,6.00000451 C7.00000962,4.34315026 8.34315538,3.00000451 10.0000096,3.00000451 Z" id="Oval"></path>
                </g>
                <line x1="17.9994237" y1="0" x2="2.99985337" y2="14.9995703" id="Path-4" stroke="#979797" stroke-linecap="round"></line>
            </g>
        </g>
    </g>
</svg>