<?xml version="1.0" encoding="UTF-8"?>
<svg width="18px" height="20px" viewBox="0 0 18 20" version="1.1" xmlns="http://www.w3.org/2000/svg" xmlns:xlink="http://www.w3.org/1999/xlink">
    
    <g id="Iconos-/-Subir" stroke="none" stroke-width="1" fill="none" fill-rule="evenodd">
        <g id="Group-2" transform="translate(1.000000, -0.000001)" fill="#501731" fill-rule="nonzero">
            <path d="M3.54907334,6.50000094 C4.10135809,6.50000094 4.54907334,6.94771619 4.54907334,7.50000094 C4.54907334,8.01283678 4.16303315,8.4355081 3.66569446,8.49327321 L3.54907334,8.50000094 L1.999,8.50000094 L1.999,18.0000009 L14.015,18.0000009 L14.015,8.50000094 L12.2913314,8.50000094 C11.7784956,8.50000094 11.3558242,8.11396075 11.2980591,7.61662206 L11.2913314,7.50000094 C11.2913314,6.9871651 11.6773716,6.56449378 12.1747103,6.50672867 L12.2913314,6.50000094 L15.0153809,6.50000094 C15.5282167,6.50000094 15.950888,6.88604113 16.0086531,7.38337981 L16.0153809,7.50000094 L16.0153809,19.0000009 C16.0153809,19.5128368 15.6293407,19.9355081 15.132002,19.9932732 L15.0153809,20.0000009 L1,20.0000009 C0.487164161,20.0000009 0.0644928393,19.6139607 0.00672773133,19.1166221 L0,19.0000009 L0,7.50000094 C0,6.9871651 0.38604019,6.56449378 0.883378875,6.50672867 L1,6.50000094 L3.54907334,6.50000094 Z" id="Path-6"></path>
            <g id="Group" transform="translate(3.999999, 0.000000)">
                <path d="M4.81786775,0.280783109 C4.93155381,0.390607041 5.01359795,0.52085679 5.0638036,0.660156609 L7.84230092,3.53812644 C8.22601989,3.93533948 8.21508079,4.56840995 7.81786775,4.95212892 C7.42065471,5.33584789 6.78758423,5.32490879 6.40386527,4.92769575 L6.40386527,4.92769575 L5,3.475 L5.00000094,13.2500009 C5.00000094,13.8022857 4.55228569,14.2500009 4.00000094,14.2500009 C3.4871651,14.2500009 3.06449378,13.8639607 3.00672867,13.3666221 L3.00000094,13.2500009 L3,3.601 L1.71921876,4.92769575 C1.3354998,5.32490879 0.70242932,5.33584789 0.305216282,4.95212892 C-0.091996756,4.56840995 -0.10293586,3.93533948 0.280783109,3.53812644 L3.05829956,0.662742157 C3.06557628,0.642426302 3.07349175,0.622414474 3.08202178,0.602730877 C3.08591266,0.593705656 3.09008687,0.584433305 3.0944092,0.575214038 C3.1627084,0.430063311 3.26458229,0.304204172 3.39007064,0.20748362 C3.40090803,0.199079324 3.41151234,0.191236278 3.42223129,0.183630184 C3.44269656,0.169175415 3.46414795,0.155149304 3.48614912,0.141945408 C3.50032442,0.133357188 3.51466292,0.125235415 3.52914975,0.117496768 C3.54836608,0.107278475 3.56838832,0.0974061761 3.58877459,0.0881974811 C3.60404086,0.0812979873 3.61875872,0.0750987962 3.63358611,0.0692683164 C3.65373527,0.0613082989 3.67480137,0.0537993884 3.69617951,0.0469898913 C3.71335485,0.0415827495 3.7303818,0.0366713485 3.74750195,0.0322214115 C3.76668576,0.0271567845 3.78630297,0.0226755941 3.80613033,0.018780395 C3.82467724,0.0152102987 3.8430337,0.0121360147 3.86144609,0.00957555414 C3.87890028,0.00709675056 3.89683934,0.00509289999 3.91491526,0.00356985853 C3.94020444,0.00145952085 3.96522568,0.000285993746 3.99025121,4.61919655e-05 L4.00000094,9.36601015e-07 L4.00000094,9.36601015e-07 L4.02528398,0.000320403768 C4.03729223,0.00062350543 4.04929537,0.00114163205 4.06128712,0.00187467527 C4.3319445,-0.0146391594 4.6078679,0.0779173434 4.81786775,0.280783109 Z" id="Combined-Shape"></path>
            </g>
        </g>
    </g>
</svg>